<?xml version="1.0" encoding="UTF-8" standalone="no"?>
<svg
   xmlns:dc="http://purl.org/dc/elements/1.1/"
   xmlns:cc="http://creativecommons.org/ns#"
   xmlns:rdf="http://www.w3.org/1999/02/22-rdf-syntax-ns#"
   xmlns:svg="http://www.w3.org/2000/svg"
   xmlns="http://www.w3.org/2000/svg"
   xmlns:sodipodi="http://sodipodi.sourceforge.net/DTD/sodipodi-0.dtd"
   xmlns:inkscape="http://www.inkscape.org/namespaces/inkscape"
   width="247.02075"
   height="144.27858"
   viewBox="0 0 65.357573 38.17371"
   version="1.1"
   id="svg20633"
   inkscape:version="1.0.1 (c497b03c, 2020-09-10)"
   sodipodi:docname="general mills.svg">
  <defs
     id="defs20627">
    <clipPath
       id="clip3-9">
      <path
         d="M 192.09375,609.44141 H 251 v 33.30468 h -58.90625 z m 0,0"
         id="path20674" />
    </clipPath>
    <clipPath
       id="clip4-8">
      <path
         d="m 398,623 h 16.50391 v 12 H 398 Z m 0,0"
         id="path20677" />
    </clipPath>
    <clipPath
       id="clip1-5">
      <path
         d="M 60.648438,232 H 247 V 482 H 60.648438 Z m 0,0"
         id="path39837" />
    </clipPath>
  </defs>
  <sodipodi:namedview
     id="base"
     pagecolor="#00ffff"
     bordercolor="#666666"
     borderopacity="1.0"
     inkscape:pageopacity="0"
     inkscape:pageshadow="2"
     inkscape:zoom="0.61249759"
     inkscape:cx="209.108"
     inkscape:cy="138.89051"
     inkscape:document-units="px"
     inkscape:current-layer="layer1"
     inkscape:document-rotation="0"
     showgrid="false"
     units="px"
     fit-margin-top="0.5"
     lock-margins="true"
     fit-margin-left="0.5"
     fit-margin-right="0.5"
     fit-margin-bottom="0.5"
     inkscape:window-width="1440"
     inkscape:window-height="872"
     inkscape:window-x="0"
     inkscape:window-y="28"
     inkscape:window-maximized="0" />
  <metadata
     id="metadata20630">
    <rdf:RDF>
      <cc:Work
         rdf:about="">
        <dc:format>image/svg+xml</dc:format>
        <dc:type
           rdf:resource="http://purl.org/dc/dcmitype/StillImage" />
        <dc:title></dc:title>
      </cc:Work>
    </rdf:RDF>
  </metadata>
  <g
     inkscape:label="Layer 1"
     inkscape:groupmode="layer"
     id="layer1"
     transform="translate(14.005512,-56.981133)">
    <g
       id="g40106"
       transform="matrix(0.39045493,0,0,0.39045493,-39.753167,24.74398)">
      <g
         clip-path="url(#clip1-5)"
         clip-rule="nonzero"
         id="g39844"
         transform="matrix(0.35277778,0,0,0.35277778,44.837584,10.304191)">
        <path
           style="fill:#234291;fill-opacity:1;fill-rule:nonzero;stroke:none"
           d="m 149.05078,232.17578 h 7.6875 c 7.64063,0.63672 15.28906,2.76563 21.68359,7.12109 7.67579,5.04688 13.13672,13.14063 15.42188,22.01563 2.85547,11.05078 1.65625,22.93359 -2.375,33.53125 -1.3125,3.74609 -2.67578,7.48047 -4.00781,11.21875 6.20312,-1.625 12.26953,-4.48047 16.6914,-9.23828 4.78516,-4.88281 7.21875,-11.48438 8.78125,-18.01953 11.26953,-0.0586 22.53516,-0.0117 33.80078,-0.0274 -5.82421,15.47657 -10.11718,31.82422 -9.82031,48.48047 0.10547,19.22266 7.11719,37.46875 9.02735,56.47266 1.41406,12.85547 1.00781,26.07812 -2.67969,38.54687 -3.37891,11.65235 -9.55078,22.51563 -17.98828,31.23047 -8.45703,8.84766 -19.02344,15.53125 -30.39063,19.94141 -14.57812,5.6875 -30.35937,7.84375 -45.9375,7.52344 C 130.36719,480.58594 111.52734,476.35937 95.566406,466.5625 81.78125,458.21094 70.40625,445.49219 64.746094,430.27734 59.046875,415.17187 59.441406,397.74219 66.304688,383.08594 71.625,371.62109 81.179688,362.35156 92.5,356.87891 c 13.97656,-6.74219 29.94922,-8.44141 45.25391,-6.86329 2.13671,-5.55468 4.23437,-11.1289 6.41406,-16.66796 C 131.28516,327.83203 119.5625,318.69141 112.82031,306.1875 102.5,287.41406 104.83594,262 119.64063,246.25391 c 7.51953,-8.28907 18.32031,-13.2461 29.41015,-14.07813 m -8.44922,39.37109 c -2.5625,5.6836 -2.84765,12.4961 -0.0781,18.15625 3,6.25782 7.75781,12.07422 14.19531,14.92579 1.30859,-2.98829 2.39062,-6.07813 3.57812,-9.11329 1.8086,-4.84375 4.01954,-9.6289 4.625,-14.8164 0.625,-4.30469 -0.0352,-9.05469 -2.85156,-12.50781 -2.92969,-3.49219 -8.05859,-4.86719 -12.35547,-3.42579 -3.2539,1.03516 -5.72265,3.74219 -7.11328,6.78125 m 35.22266,65.85547 c -2.53125,7.00391 -5.27735,13.9336 -7.73438,20.97266 7.76563,3.65234 15.80469,7.42578 21.90625,13.65625 -3.83203,9.75391 -7.65625,19.50781 -11.63672,29.20312 -6.02343,-5.95703 -13.04296,-11.01953 -20.96484,-14.09765 -4.29687,11.39453 -8.50391,22.8125 -12.73047,34.23437 -11.03515,0.0274 -22.07031,0.0156 -33.10547,0.008 4.92969,-13.19532 9.83204,-26.40625 14.73829,-39.61719 -10.83594,-0.32813 -21.71485,5.16797 -27.574224,14.36719 -2.492187,3.84375 -4.003906,8.48828 -3.375,13.10156 0.601563,9.75 5.640624,18.92578 13.152344,25.07031 10.26172,8.49609 23.72266,11.96484 36.76562,12.94141 10.78125,0.73828 21.82813,0.0976 32.12891,-3.38672 9.27734,-3 17.85938,-8.53125 23.89063,-16.27735 7.89453,-9.98046 10.98046,-23.17578 10.07812,-35.73046 -0.87891,-9.625 -3.19531,-19.04297 -4.94531,-28.53125 -2.03516,-10.6836 -3.72656,-21.51172 -3.72656,-32.42188 -8.625,3.33594 -17.67188,5.53516 -26.86719,6.50781"
           id="path39842" />
      </g>
      <path
         style="fill:#e32123;fill-opacity:1;fill-rule:nonzero;stroke:none;stroke-width:0.352778"
         d="m 125.92549,104.3236 c 6.00549,-4.564059 9.05233,-7.110673 10.99536,-10.48549 2.73403,-4.745962 1.07763,-8.772592 -2.38676,-10.344933 -3.24804,-1.477257 -7.10379,-0.09095 -8.6086,3.093695 -1.5062,-3.184645 -5.36195,-4.570952 -8.60999,-3.093695 -3.46438,1.572341 -5.12079,5.598971 -2.38538,10.344933 1.94303,3.374817 4.9885,5.921431 10.99537,10.48549"
         id="path39846" />
      <path
         style="fill:#234291;fill-opacity:1;fill-rule:nonzero;stroke:none;stroke-width:0.352778"
         d="m 141.89419,117.30335 v -0.0482 c 0,-4.78041 3.72484,-8.6968 8.81807,-8.6968 3.02617,0 4.85207,0.8158 6.60493,2.30684 l -2.32888,2.8112 c -1.29811,-1.08176 -2.45015,-1.70739 -4.39594,-1.70739 -2.69131,0 -4.82865,2.37987 -4.82865,5.23792 v 0.0482 c 0,3.07579 2.11391,5.33301 5.09186,5.33301 1.34496,0 2.54661,-0.33624 3.48368,-1.00734 v -2.4033 h -3.72346 v -3.19567 h 7.30222 v 7.3036 c -1.72806,1.46485 -4.10793,2.6665 -7.18234,2.6665 -5.23654,0 -8.84149,-3.67523 -8.84149,-8.64856"
         id="path39848" />
      <path
         style="fill:#234291;fill-opacity:1;fill-rule:nonzero;stroke:none;stroke-width:0.352778"
         d="m 160.46464,119.29737 v -0.0482 c 0,-3.6766 2.61965,-6.70277 6.36653,-6.70277 4.30086,0 6.27145,3.33899 6.27145,6.99079 0,0.288 -0.0248,0.62563 -0.0482,0.96187 h -8.96276 c 0.36105,1.65778 1.51447,2.52181 3.14744,2.52181 1.22646,0 2.11529,-0.3831 3.12401,-1.32154 l 2.09049,1.8507 c -1.20165,1.48966 -2.93247,2.40192 -5.26135,2.40192 -3.86815,0 -6.72758,-2.71473 -6.72758,-6.65454 m 9.08127,-1.08177 c -0.21636,-1.63297 -1.17685,-2.73815 -2.71474,-2.73815 -1.51308,0 -2.49838,1.08175 -2.78777,2.73815 h 5.50251"
         id="path39850" />
      <path
         style="fill:#234291;fill-opacity:1;fill-rule:nonzero;stroke:none;stroke-width:0.352778"
         d="m 175.81598,112.78614 h 3.6518 v 1.8259 c 0.84061,-1.08177 1.92236,-2.06568 3.77169,-2.06568 2.76297,0 4.37252,1.8259 4.37252,4.78041 v 8.33713 h -3.6518 v -7.18371 c 0,-1.72944 -0.8158,-2.61827 -2.21038,-2.61827 -1.39319,0 -2.28203,0.88883 -2.28203,2.61827 v 7.18371 h -3.6518 v -12.87776"
         id="path39852" />
      <path
         style="fill:#234291;fill-opacity:1;fill-rule:nonzero;stroke:none;stroke-width:0.352778"
         d="m 190.15723,119.29737 v -0.0482 c 0,-3.6766 2.61965,-6.70277 6.36653,-6.70277 4.30086,0 6.27145,3.33899 6.27145,6.99079 0,0.288 -0.0248,0.62563 -0.0496,0.96187 h -8.96138 c 0.36105,1.65778 1.51447,2.52181 3.14882,2.52181 1.22507,0 2.11391,-0.3831 3.12263,-1.32154 l 2.09049,1.8507 c -1.20165,1.48966 -2.93109,2.40192 -5.26135,2.40192 -3.86815,0 -6.72758,-2.71473 -6.72758,-6.65454 m 9.08126,-1.08177 c -0.21497,-1.63297 -1.17684,-2.73815 -2.71473,-2.73815 -1.51308,0 -2.49838,1.08175 -2.78639,2.73815 h 5.50112"
         id="path39854" />
      <path
         style="fill:#234291;fill-opacity:1;fill-rule:nonzero;stroke:none;stroke-width:0.352778"
         d="m 205.50857,112.78614 h 3.6518 v 2.59484 c 0.74552,-1.77767 1.94579,-2.93109 4.10793,-2.83462 v 3.81992 h -0.19154 c -2.42673,0 -3.91639,1.46623 -3.91639,4.54063 v 4.75699 h -3.6518 v -12.87776"
         id="path39856" />
      <path
         style="fill:#234291;fill-opacity:1;fill-rule:nonzero;stroke:none;stroke-width:0.352778"
         d="m 214.18194,121.96387 v -0.0482 c 0,-2.8112 2.13734,-4.10931 5.18832,-4.10931 1.29811,0 2.23517,0.21773 3.14881,0.53054 v -0.21773 c 0,-1.51308 -0.93844,-2.35369 -2.76434,-2.35369 -1.3932,0 -2.37849,0.26459 -3.55534,0.69729 l -0.91364,-2.78639 c 1.418,-0.62563 2.8112,-1.03353 4.99677,-1.03353 1.9954,0 3.43683,0.52779 4.35046,1.44143 0.9605,0.96049 1.39182,2.37849 1.39182,4.10793 v 7.47172 h -3.53053 v -1.39319 c -0.88884,0.98392 -2.11391,1.63297 -3.89296,1.63297 -2.42672,0 -4.41937,-1.3932 -4.41937,-3.93981 m 8.38399,-0.8406 v -0.64906 c -0.62563,-0.28801 -1.44143,-0.47956 -2.33026,-0.47956 -1.56132,0 -2.52319,0.62425 -2.52319,1.7763 v 0.0496 c 0,0.98392 0.81717,1.55994 1.99402,1.55994 1.70601,0 2.85943,-0.93568 2.85943,-2.25722"
         id="path39858" />
      <path
         style="fill:#234291;fill-opacity:1;fill-rule:nonzero;stroke:none;stroke-width:0.352778"
         d="m 229.34036,125.6639 h 3.6518 v -17.53829 h -3.6518 z m 0,0"
         id="path39860" />
      <path
         style="fill:#234291;fill-opacity:1;fill-rule:nonzero;stroke:none;stroke-width:0.352778"
         d="m 142.63971,132.02906 h 3.98667 l 4.42212,7.11068 4.41937,-7.11068 h 3.98804 v 16.81758 h -3.67523 v -10.97883 l -4.73218,7.18233 h -0.0965 l -4.68533,-7.11067 v 10.90717 h -3.627 v -16.81758"
         id="path39862" />
      <path
         style="fill:#234291;fill-opacity:1;fill-rule:nonzero;stroke:none;stroke-width:0.352778"
         d="m 163.17937,131.30972 h 3.84473 v 3.24253 h -3.84473 z m 0.0965,4.65915 h 3.65042 v 12.87777 h -3.65042 z m 0,0"
         id="path39864" />
      <path
         style="fill:#234291;fill-opacity:1;fill-rule:nonzero;stroke:none;stroke-width:0.352778"
         d="m 170.5312,148.84802 h 3.65181 v -17.5383 h -3.65181 z m 0,0"
         id="path39866" />
      <path
         style="fill:#234291;fill-opacity:1;fill-rule:nonzero;stroke:none;stroke-width:0.352778"
         d="m 177.78658,148.84802 h 3.6518 v -17.5383 h -3.6518 z m 0,0"
         id="path39868" />
      <path
         style="fill:#234291;fill-opacity:1;fill-rule:nonzero;stroke:none;stroke-width:0.352778"
         d="m 183.86372,147.14063 1.55994,-2.40192 c 1.39458,1.00872 2.85943,1.53789 4.06108,1.53789 1.05696,0 1.53789,-0.38585 1.53789,-0.96187 v -0.0482 c 0,-0.79237 -1.2485,-1.05696 -2.6665,-1.48966 -1.80248,-0.52779 -3.84473,-1.36839 -3.84473,-3.86678 v -0.0496 c 0,-2.61827 2.11391,-4.08313 4.70876,-4.08313 1.63297,0 3.41202,0.5526 4.80522,1.48966 l -1.3932,2.52319 c -1.27331,-0.74552 -2.54661,-1.20165 -3.48368,-1.20165 -0.88883,0 -1.34497,0.38448 -1.34497,0.88884 v 0.0469 c 0,0.72209 1.2237,1.05696 2.61828,1.53789 1.8011,0.60083 3.89295,1.46623 3.89295,3.81992 v 0.0482 c 0,2.85943 -2.13871,4.15616 -4.92648,4.15616 -1.8011,0 -3.81992,-0.60083 -5.52456,-1.94579"
         id="path39870" />
    </g>
  </g>
</svg>
