<?xml version="1.0" encoding="utf-8"?>
<!-- Generator: Adobe Illustrator 16.0.4, SVG Export Plug-In . SVG Version: 6.00 Build 0)  -->
<!DOCTYPE svg PUBLIC "-//W3C//DTD SVG 1.1//EN" "http://www.w3.org/Graphics/SVG/1.1/DTD/svg11.dtd">
<svg version="1.1" id="Layer_1" xmlns="http://www.w3.org/2000/svg" xmlns:xlink="http://www.w3.org/1999/xlink" x="0px" y="0px"
	 width="722.607px" height="286.352px" viewBox="0 0 722.607 286.352" enable-background="new 0 0 722.607 286.352"
	 xml:space="preserve">
<g id="XMLID_2_">
	<g id="XMLID_15_">
		<g id="XMLID_99_">
			<path id="XMLID_100_" fill="#58595B" d="M270.449,72.283h14.062v25.293h25.932V72.283h14.062v63.916h-14.062v-25.658H284.51
				v25.658h-14.062V72.283z"/>
			<path id="XMLID_102_" fill="#58595B" d="M332.443,104.424v-0.183c0-18.171,14.335-33.054,34.058-33.054
				c19.723,0,33.876,14.701,33.876,32.871v0.183c0,18.171-14.336,33.054-34.059,33.054
				C346.596,137.295,332.443,122.594,332.443,104.424z M385.676,104.424v-0.183c0-10.957-8.035-20.088-19.357-20.088
				c-11.322,0-19.174,8.948-19.174,19.905v0.183c0,10.957,8.035,20.088,19.357,20.088
				C377.823,124.329,385.676,115.381,385.676,104.424z"/>
			<path id="XMLID_105_" fill="#58595B" d="M405.942,104.424v-0.183c0-18.171,14.336-33.054,34.059-33.054
				s33.875,14.701,33.875,32.871v0.183c0,18.171-14.336,33.054-34.059,33.054C420.096,137.295,405.942,122.594,405.942,104.424z
				 M459.175,104.424v-0.183c0-10.957-8.035-20.088-19.357-20.088s-19.174,8.948-19.174,19.905v0.183
				c0,10.957,8.035,20.088,19.357,20.088S459.175,115.381,459.175,104.424z"/>
			<path id="XMLID_108_" fill="#58595B" d="M482.272,72.283h26.114c15.249,0,24.471,9.039,24.471,22.097v0.183
				c0,14.792-11.505,22.462-25.841,22.462h-10.683v19.175h-14.062V72.283z M507.474,104.516c7.031,0,11.14-4.201,11.14-9.68v-0.182
				c0-6.301-4.383-9.68-11.413-9.68h-10.866v19.541H507.474z"/>
			<path id="XMLID_111_" fill="#58595B" d="M540.98,72.283h26.114c15.248,0,24.471,9.039,24.471,22.097v0.183
				c0,14.792-11.505,22.462-25.84,22.462h-10.684v19.175H540.98V72.283z M566.182,104.516c7.03,0,11.14-4.201,11.14-9.68v-0.182
				c0-6.301-4.383-9.68-11.414-9.68h-10.865v19.541H566.182z"/>
		</g>
		<g id="XMLID_7_">
			<g id="XMLID_658_">
				<path id="XMLID_732_" fill="#58595B" d="M269.341,181.918l2.358-0.505c1.011-0.211,1.179-0.337,1.179-1.011v-20.552
					c0-0.674-0.168-0.801-1.179-1.011l-2.358-0.506v-1.264h11.75v1.264l-2.063,0.506c-1.011,0.21-1.179,0.337-1.179,1.011v8.802
					h13.224v-8.802c0-0.674-0.168-0.801-1.179-1.011l-2.063-0.506v-1.264h11.75v1.264l-2.358,0.506
					c-1.011,0.21-1.179,0.337-1.179,1.011v20.552c0,0.674,0.168,0.8,1.179,1.011l2.358,0.505v1.264h-11.75v-1.264l2.063-0.505
					c1.011-0.211,1.179-0.337,1.179-1.011V170.8h-13.224v9.603c0,0.674,0.168,0.8,1.179,1.011l2.063,0.505v1.264h-11.75V181.918z"/>
				<path id="XMLID_729_" fill="#58595B" d="M310.993,162.967c4.464,0,7.539,2.442,7.539,6.696c0,0.59-0.168,1.727-0.337,2.274
					l-12.508-0.337v0.842c0,5.307,2.569,8.297,6.822,8.297c2.274,0,4.127-1.095,5.349-2.569l0.505,0.379
					c-1.474,2.948-3.875,5.139-8.086,5.139c-5.475,0-8.928-4.212-8.928-10.36C301.349,167.305,305.139,162.967,310.993,162.967z
					 M305.855,170.379l8.212-0.379c0.168-0.337,0.21-0.927,0.21-1.306c0-2.864-1.348-4.169-3.454-4.169
					C307.876,164.525,306.149,167.178,305.855,170.379z"/>
				<path id="XMLID_726_" fill="#58595B" d="M328.977,172.779l3.917-1.011v-2.274c0-3.242-1.558-4.59-4.211-4.59
					c-0.969,0-2.358,0.295-3.117,0.758l0.337,0.674c0.253,0.548,0.547,1.18,0.547,1.938c0,1.39-0.884,2.273-2.316,2.273
					c-1.264,0-2.148-0.884-2.148-2.273s1.348-2.611,2.4-3.243l0.842-0.505c1.474-0.843,3.285-1.559,5.138-1.559
					c4.422,0,6.864,1.685,6.864,6.064v8.297c0,1.095,0,2.821,0.337,3.79c0.758,0.337,1.896,0.505,2.906,0.505v0.927
					c-1.306,0.758-3.032,1.138-4.127,1.138c-2.021,0-3.159-1.18-3.411-3.075h-0.042c-1.095,1.685-3.159,3.075-6.022,3.075
					c-3.496,0-5.559-1.896-5.559-5.055C321.312,175.012,325.186,173.748,328.977,172.779z M332.893,179.307v-6.148l-2.99,0.843
					c-2.021,0.632-4.464,1.643-4.464,4.085c0,2.147,1.306,3.116,3.327,3.116C330.619,181.202,332.177,180.233,332.893,179.307z"/>
				<path id="XMLID_724_" fill="#58595B" d="M341.906,182.087l1.432-0.337c0.968-0.211,1.263-0.379,1.263-1.053v-22.953
					c0-0.884-0.252-1.263-1.643-1.853l-1.095-0.505v-0.927l5.896-1.095h1.558c-0.337,3.031-0.337,5.011-0.337,6.064v21.268
					c0,0.674,0.295,0.842,1.264,1.053l1.558,0.337v1.095h-9.897V182.087z"/>
				<path id="XMLID_722_" fill="#58595B" d="M356.268,166.083h-2.274v-1.474c0.758-0.211,2.063-0.758,2.737-1.432
					c0.674-0.969,1.769-3.622,2.148-4.928h1.769v5.728h5.854v2.105h-5.854v11.329c0,2.695,0.758,3.748,3.2,3.748
					c1.391,0,2.527-0.632,3.201-1.306l0.505,0.548c-1.137,1.895-3.158,3.285-5.896,3.285c-3.412,0-5.391-1.938-5.391-5.223V166.083z
					"/>
				<path id="XMLID_720_" fill="#58595B" d="M382.168,182.087l1.432-0.337c0.969-0.211,1.264-0.379,1.264-1.053v-9.771
					c0-2.695-0.674-5.391-4.043-5.391c-2.316,0-4.001,1.558-4.675,2.989v12.172c0,0.674,0.295,0.842,1.264,1.053l1.558,0.337v1.095
					h-9.896v-1.095l1.432-0.337c0.969-0.211,1.264-0.379,1.264-1.053v-22.953c0-0.884-0.253-1.263-1.643-1.853l-1.095-0.505v-0.927
					l5.896-1.095h1.559c-0.337,3.031-0.337,5.011-0.337,6.064v7.706c1.179-2.315,3.285-4.169,6.569-4.169
					c4.38,0,6.528,2.695,6.528,6.864v10.866c0,0.674,0.295,0.842,1.263,1.053l1.559,0.337v1.095h-9.896V182.087z"/>
				<path id="XMLID_718_" fill="#58595B" d="M403.996,162.967c3.369,0,6.569,1.938,6.569,5.096c0,1.643-1.137,2.611-2.442,2.611
					s-2.358-0.927-2.358-2.442c0-0.716,0.169-1.517,1.18-2.527c-0.379-0.505-1.18-1.179-2.99-1.179
					c-3.327,0-5.475,3.284-5.475,7.791c0,5.475,2.779,8.423,6.695,8.423c1.938,0,3.664-0.927,4.886-2.485l0.463,0.506
					c-1.221,2.737-3.621,4.928-7.622,4.928c-5.265,0-8.929-3.959-8.929-10.445C393.973,166.926,398.353,162.967,403.996,162.967z"/>
				<path id="XMLID_715_" fill="#58595B" d="M421.052,172.779l3.917-1.011v-2.274c0-3.242-1.559-4.59-4.211-4.59
					c-0.969,0-2.358,0.295-3.117,0.758l0.337,0.674c0.253,0.548,0.548,1.18,0.548,1.938c0,1.39-0.885,2.273-2.316,2.273
					c-1.264,0-2.147-0.884-2.147-2.273s1.348-2.611,2.4-3.243l0.842-0.505c1.475-0.843,3.285-1.559,5.139-1.559
					c4.422,0,6.864,1.685,6.864,6.064v8.297c0,1.095,0,2.821,0.337,3.79c0.758,0.337,1.895,0.505,2.905,0.505v0.927
					c-1.305,0.758-3.032,1.138-4.127,1.138c-2.021,0-3.158-1.18-3.411-3.075h-0.042c-1.095,1.685-3.158,3.075-6.022,3.075
					c-3.495,0-5.559-1.896-5.559-5.055C413.388,175.012,417.262,173.748,421.052,172.779z M424.969,179.307v-6.148l-2.99,0.843
					c-2.021,0.632-4.464,1.643-4.464,4.085c0,2.147,1.306,3.116,3.327,3.116C422.694,181.202,424.253,180.233,424.969,179.307z"/>
				<path id="XMLID_713_" fill="#58595B" d="M434.193,182.087l1.432-0.337c0.969-0.211,1.264-0.379,1.264-1.053v-13.351
					c0-0.885-0.211-1.348-1.727-1.853l-0.843-0.338v-1.095l5.728-1.095h1.222v4.591c0.968-2.527,2.989-4.591,5.138-4.591
					c1.516,0,2.526,0.927,2.526,2.316c0,1.811-1.348,2.695-1.937,2.948c-0.379-0.759-1.138-1.517-2.274-1.517
					c-1.517,0-2.695,0.969-3.453,2.021v11.624c0,0.884,0.21,0.968,1.516,1.221l2.358,0.506v1.095h-10.949V182.087z"/>
				<path id="XMLID_710_" fill="#58595B" d="M459.949,162.967c4.464,0,7.539,2.442,7.539,6.696c0,0.59-0.169,1.727-0.338,2.274
					l-12.508-0.337v0.842c0,5.307,2.569,8.297,6.823,8.297c2.273,0,4.127-1.095,5.349-2.569l0.505,0.379
					c-1.474,2.948-3.874,5.139-8.086,5.139c-5.475,0-8.929-4.212-8.929-10.36C450.305,167.305,454.096,162.967,459.949,162.967z
					 M454.812,170.379l8.212-0.379c0.169-0.337,0.211-0.927,0.211-1.306c0-2.864-1.348-4.169-3.453-4.169
					C456.833,164.525,455.106,167.178,454.812,170.379z"/>
				<path id="XMLID_707_" fill="#58595B" d="M491.578,162.967c5.979,0,10.107,4.043,10.107,10.275
					c0,5.938-4.128,10.445-10.107,10.445c-5.98,0-10.107-4.086-10.107-10.445C481.471,167.305,485.598,162.967,491.578,162.967z
					 M491.578,182.255c3.074,0,5.264-2.779,5.264-9.013c0-4.801-1.853-8.844-5.264-8.844c-3.075,0-5.265,2.906-5.265,8.844
					C486.313,178.086,488.166,182.255,491.578,182.255z"/>
				<path id="XMLID_705_" fill="#58595B" d="M504.305,163.978h2.4v-1.179c0-6.191,3.495-9.434,8.76-9.434
					c2.189,0,3.832,0.926,3.832,2.863c0,1.432-1.137,2.189-2.189,2.189c-1.348,0-2.864-1.179-2.19-3.705
					c-1.853,0-3.832,1.39-3.832,6.064v3.2h4.885v2.105h-4.885v14.445c0,0.59,0.168,0.843,1.306,1.053l2.695,0.506v1.095h-11.119
					v-1.095l1.391-0.337c0.884-0.211,1.348-0.379,1.348-1.053v-14.614h-3.074L504.305,163.978z"/>
				<path id="XMLID_702_" fill="#58595B" d="M542.545,156.396c8.17,0,13.897,5.349,13.897,13.477
					c0,8.171-5.686,13.814-13.897,13.814c-8.129,0-13.898-5.644-13.898-13.814C528.646,161.872,534.416,156.396,542.545,156.396z
					 M542.545,182.129c6.064,0,8.296-6.022,8.296-12.256c0-6.106-2.189-11.918-8.296-11.918c-6.022,0-8.297,5.728-8.297,11.918
					C534.248,176.359,536.48,182.129,542.545,182.129z"/>
				<path id="XMLID_700_" fill="#58595B" d="M558.929,182.087l1.432-0.337c0.969-0.211,1.264-0.379,1.264-1.053v-13.351
					c0-0.885-0.253-1.222-1.728-1.853l-0.842-0.338v-1.095l5.728-1.095h1.222v4.169c1.179-2.315,3.284-4.169,6.569-4.169
					c4.38,0,6.528,2.695,6.528,6.864v10.866c0,0.674,0.294,0.842,1.263,1.053l1.559,0.337v1.095h-9.897v-1.095l1.433-0.337
					c0.969-0.211,1.263-0.379,1.263-1.053v-9.771c0-2.695-0.674-5.391-4.043-5.391c-2.315,0-4,1.558-4.674,2.989v12.172
					c0,0.674,0.295,0.842,1.263,1.053l1.559,0.337v1.095h-9.896V182.087z"/>
				<path id="XMLID_698_" fill="#58595B" d="M585.587,166.083h-2.274v-1.474c0.758-0.211,2.063-0.758,2.737-1.432
					c0.674-0.969,1.769-3.622,2.147-4.928h1.77v5.728h5.854v2.105h-5.854v11.329c0,2.695,0.758,3.748,3.2,3.748
					c1.39,0,2.527-0.632,3.201-1.306l0.505,0.548c-1.137,1.895-3.158,3.285-5.896,3.285c-3.411,0-5.391-1.938-5.391-5.223V166.083z"
					/>
				<path id="XMLID_695_" fill="#58595B" d="M606.012,172.779l3.917-1.011v-2.274c0-3.242-1.559-4.59-4.212-4.59
					c-0.969,0-2.358,0.295-3.116,0.758l0.337,0.674c0.253,0.548,0.548,1.18,0.548,1.938c0,1.39-0.885,2.273-2.316,2.273
					c-1.264,0-2.147-0.884-2.147-2.273s1.348-2.611,2.4-3.243l0.842-0.505c1.475-0.843,3.285-1.559,5.138-1.559
					c4.423,0,6.865,1.685,6.865,6.064v8.297c0,1.095,0,2.821,0.337,3.79c0.758,0.337,1.895,0.505,2.905,0.505v0.927
					c-1.306,0.758-3.032,1.138-4.127,1.138c-2.021,0-3.158-1.18-3.411-3.075h-0.042c-1.095,1.685-3.159,3.075-6.022,3.075
					c-3.495,0-5.559-1.896-5.559-5.055C598.348,175.012,602.222,173.748,606.012,172.779z M609.929,179.307v-6.148l-2.99,0.843
					c-2.021,0.632-4.464,1.643-4.464,4.085c0,2.147,1.306,3.116,3.327,3.116C607.654,181.202,609.213,180.233,609.929,179.307z"/>
				<path id="XMLID_693_" fill="#58595B" d="M619.152,182.087l1.432-0.337c0.969-0.211,1.264-0.379,1.264-1.053v-13.351
					c0-0.885-0.211-1.348-1.727-1.853l-0.843-0.338v-1.095l5.728-1.095h1.222v4.591c0.968-2.527,2.989-4.591,5.138-4.591
					c1.516,0,2.526,0.927,2.526,2.316c0,1.811-1.348,2.695-1.937,2.948c-0.379-0.759-1.138-1.517-2.274-1.517
					c-1.517,0-2.695,0.969-3.453,2.021v11.624c0,0.884,0.21,0.968,1.516,1.221l2.358,0.506v1.095h-10.949V182.087z"/>
				<path id="XMLID_690_" fill="#58595B" d="M636.04,182.087l1.432-0.337c0.969-0.211,1.264-0.379,1.264-1.053v-13.351
					c0-0.885-0.211-1.348-1.727-1.853l-0.8-0.338v-1.095l5.685-1.095h1.222v17.73c0,0.674,0.295,0.842,1.264,1.053l1.558,0.337
					v1.095h-9.896V182.087z M638.482,156.018c0-1.6,1.096-2.652,2.611-2.652s2.611,1.053,2.611,2.652
					c0,1.727-1.096,2.738-2.611,2.738S638.482,157.744,638.482,156.018z"/>
				<path id="XMLID_687_" fill="#58595B" d="M658.445,162.967c5.979,0,10.107,4.043,10.107,10.275
					c0,5.938-4.128,10.445-10.107,10.445c-5.98,0-10.107-4.086-10.107-10.445C648.338,167.305,652.465,162.967,658.445,162.967z
					 M658.445,182.255c3.074,0,5.264-2.779,5.264-9.013c0-4.801-1.853-8.844-5.264-8.844c-3.075,0-5.265,2.906-5.265,8.844
					C653.181,178.086,655.033,182.255,658.445,182.255z"/>
				<path id="XMLID_684_" fill="#58595B" d="M269.341,220.914l2.358-0.505c1.011-0.211,1.179-0.337,1.179-1.011v-20.552
					c0-0.674-0.168-0.801-1.179-1.011l-2.358-0.506v-1.264h12.34c6.401,0,9.981,2.232,9.981,7.16c0,5.138-3.706,8.633-9.813,8.633
					c-1.937,0-2.99-0.126-4-0.421v7.918c0,0.674,0.21,0.842,1.263,1.053l2.906,0.505v1.264h-12.677V220.914z M277.848,197.962
					v12.213h1.516c5.054,0,7.412-2.273,7.412-6.822c0-3.537-1.559-5.728-5.98-5.728h-0.421
					C279.575,197.625,278.354,197.794,277.848,197.962z"/>
				<path id="XMLID_681_" fill="#58595B" d="M302.611,201.963c4.464,0,7.539,2.442,7.539,6.696c0,0.59-0.168,1.727-0.337,2.274
					l-12.508-0.337v0.842c0,5.307,2.569,8.297,6.822,8.297c2.274,0,4.127-1.095,5.349-2.569l0.505,0.379
					c-1.474,2.948-3.875,5.139-8.086,5.139c-5.475,0-8.928-4.212-8.928-10.36C292.967,206.301,296.758,201.963,302.611,201.963z
					 M297.474,209.375l8.212-0.379c0.169-0.337,0.211-0.927,0.211-1.306c0-2.864-1.348-4.169-3.454-4.169
					C299.495,203.521,297.769,206.174,297.474,209.375z"/>
				<path id="XMLID_679_" fill="#58595B" d="M312.298,221.083l1.432-0.337c0.969-0.211,1.263-0.379,1.263-1.053v-13.351
					c0-0.885-0.252-1.222-1.727-1.853l-0.842-0.338v-1.095l5.728-1.095h1.221v4.169c1.179-2.315,3.285-4.169,6.57-4.169
					c4.38,0,6.528,2.695,6.528,6.864v10.866c0,0.674,0.295,0.842,1.263,1.053l1.559,0.337v1.095h-9.897v-1.095l1.432-0.337
					c0.968-0.211,1.263-0.379,1.263-1.053v-9.771c0-2.695-0.674-5.391-4.043-5.391c-2.316,0-4.001,1.558-4.675,2.989v12.172
					c0,0.674,0.295,0.842,1.264,1.053l1.558,0.337v1.095h-9.897V221.083z"/>
				<path id="XMLID_677_" fill="#58595B" d="M338.115,215.271h1.221c0.463,1.769,1.011,3.537,1.685,4.548
					c1.011,0.927,2.653,1.348,3.917,1.348c2.147,0,3.537-1.222,3.537-3.243c0-1.979-1.137-2.905-2.99-3.621l-3.159-1.222
					c-2.148-0.8-4.043-2.442-4.043-5.307c0-3.958,3.706-5.812,7.581-5.812c1.853,0,3.664,0.463,4.548,0.969l0.674-0.969h0.842v6.401
					h-1.011c-0.21-1.095-0.716-2.864-1.053-3.538c-0.842-0.842-2.148-1.474-3.959-1.474c-1.853,0-3.496,1.053-3.496,3.159
					c0,1.853,0.927,2.61,2.738,3.326l2.99,1.138c2.358,0.927,4.675,2.358,4.675,5.517c0,4.38-3.748,6.191-7.875,6.191
					c-2.232,0-3.791-0.506-4.97-1.138l-0.674,1.138h-1.011L338.115,215.271z"/>
				<path id="XMLID_674_" fill="#58595B" d="M356.014,221.083l1.432-0.337c0.969-0.211,1.264-0.379,1.264-1.053v-13.351
					c0-0.885-0.21-1.348-1.727-1.853l-0.8-0.338v-1.095l5.686-1.095h1.221v17.73c0,0.674,0.295,0.842,1.264,1.053l1.559,0.337v1.095
					h-9.897V221.083z M358.456,195.014c0-1.6,1.095-2.652,2.611-2.652c1.517,0,2.611,1.053,2.611,2.652
					c0,1.727-1.095,2.738-2.611,2.738C359.551,197.752,358.456,196.74,358.456,195.014z"/>
				<path id="XMLID_671_" fill="#58595B" d="M378.503,201.963c5.979,0,10.107,4.043,10.107,10.275
					c0,5.938-4.128,10.445-10.107,10.445c-5.98,0-10.107-4.086-10.107-10.445C368.396,206.301,372.522,201.963,378.503,201.963z
					 M378.503,221.251c3.074,0,5.264-2.779,5.264-9.013c0-4.801-1.853-8.844-5.264-8.844c-3.074,0-5.265,2.906-5.265,8.844
					C373.238,217.082,375.092,221.251,378.503,221.251z"/>
				<path id="XMLID_669_" fill="#58595B" d="M390.885,221.083l1.432-0.337c0.969-0.211,1.264-0.379,1.264-1.053v-13.351
					c0-0.885-0.253-1.222-1.727-1.853l-0.843-0.338v-1.095l5.728-1.095h1.222v4.169c1.179-2.315,3.285-4.169,6.569-4.169
					c4.38,0,6.528,2.695,6.528,6.864v10.866c0,0.674,0.295,0.842,1.263,1.053l1.559,0.337v1.095h-9.896v-1.095l1.432-0.337
					c0.969-0.211,1.264-0.379,1.264-1.053v-9.771c0-2.695-0.674-5.391-4.043-5.391c-2.316,0-4.001,1.558-4.675,2.989v12.172
					c0,0.674,0.295,0.842,1.264,1.053l1.558,0.337v1.095h-9.896V221.083z"/>
				<path id="XMLID_666_" fill="#58595B" d="M426.936,220.914l2.358-0.505c1.011-0.211,1.179-0.337,1.179-1.011v-20.552
					c0-0.674-0.168-0.801-1.179-1.011l-2.358-0.506v-1.264h12.339c6.401,0,9.981,2.232,9.981,7.16c0,5.138-3.706,8.633-9.812,8.633
					c-1.938,0-2.99-0.126-4.001-0.421v7.918c0,0.674,0.21,0.842,1.264,1.053l2.905,0.505v1.264h-12.676V220.914z M435.442,197.962
					v12.213h1.516c5.054,0,7.412-2.273,7.412-6.822c0-3.537-1.558-5.728-5.979-5.728h-0.422
					C437.169,197.625,435.947,197.794,435.442,197.962z"/>
				<path id="XMLID_664_" fill="#58595B" d="M450.457,221.083l1.432-0.337c0.969-0.211,1.264-0.379,1.264-1.053V196.74
					c0-0.884-0.253-1.263-1.643-1.853l-1.096-0.505v-0.927l5.896-1.095h1.559c-0.337,3.031-0.337,5.011-0.337,6.064v21.268
					c0,0.674,0.294,0.842,1.263,1.053l1.559,0.337v1.095h-9.896V221.083z"/>
				<path id="XMLID_661_" fill="#58595B" d="M470.292,211.775l3.917-1.011v-2.274c0-3.242-1.559-4.59-4.212-4.59
					c-0.968,0-2.358,0.295-3.116,0.758l0.337,0.674c0.253,0.548,0.548,1.18,0.548,1.938c0,1.39-0.885,2.273-2.316,2.273
					c-1.264,0-2.148-0.884-2.148-2.273s1.348-2.611,2.401-3.243l0.842-0.505c1.474-0.843,3.285-1.559,5.138-1.559
					c4.422,0,6.865,1.685,6.865,6.064v8.297c0,1.095,0,2.821,0.337,3.79c0.758,0.337,1.895,0.505,2.905,0.505v0.927
					c-1.305,0.758-3.032,1.138-4.127,1.138c-2.021,0-3.158-1.18-3.411-3.075h-0.042c-1.095,1.685-3.158,3.075-6.022,3.075
					c-3.495,0-5.56-1.896-5.56-5.055C462.627,214.008,466.502,212.744,470.292,211.775z M474.209,218.303v-6.148l-2.99,0.843
					c-2.021,0.632-4.464,1.643-4.464,4.085c0,2.147,1.306,3.116,3.327,3.116C471.935,220.198,473.493,219.229,474.209,218.303z"/>
				<path id="XMLID_659_" fill="#58595B" d="M483.643,221.083l1.432-0.337c0.969-0.211,1.264-0.379,1.264-1.053v-13.351
					c0-0.885-0.253-1.222-1.727-1.853l-0.843-0.338v-1.095l5.728-1.095h1.222v4.169c1.179-2.315,3.284-4.169,6.569-4.169
					c4.38,0,6.527,2.695,6.527,6.864v10.866c0,0.674,0.295,0.842,1.264,1.053l1.559,0.337v1.095h-9.896v-1.095l1.432-0.337
					c0.969-0.211,1.264-0.379,1.264-1.053v-9.771c0-2.695-0.674-5.391-4.043-5.391c-2.316,0-4.001,1.558-4.675,2.989v12.172
					c0,0.674,0.294,0.842,1.263,1.053l1.559,0.337v1.095h-9.896V221.083z"/>
			</g>
		</g>
	</g>
	<path id="XMLID_137_" fill="#009944" d="M145.027,54.055c-50.243,0-90.972,40.729-90.972,90.972
		c0,41.291,27.509,76.157,65.201,87.271l0.004-0.006c14.144-12.376,16.703-35.658,17.747-43.677
		c0.252-1.935,1.83-14.267,1.976-24.806c0.01-0.733,0.04-2.323,0.045-2.937c0.009-0.894,0.057-1.745,0.098-2.612
		c1.476-30.975,23.043-45.375,32.68-51.985c1.494-1.818,1.921-3.773,1.921-3.775c-11.763,2.644-20.254,11.765-21.371,13.013
		c0-0.001,0-0.002,0.001-0.003l-0.002,0.002c5.159-18.229,22.019-21.437,32.556-21.346c1.09,0.009,2.113,0.054,3.048,0.121
		c0.196,0.014,0.419,0.021,0.663,0.021c1.709-0.006,4.452-0.396,6.36-1.396l0,0.001c0.001,0,0.001,0,0.001,0l-1.45,6.667
		c-4.524,23.166-27.795,25.695-35.551,25.95c0,0-0.74,0.014-1.401,0.089c-0.808,0.091-0.961,0.267-1.063,0.375
		c-0.015,0.016-0.031,0.034-0.044,0.054c-3.397,5.118-8.783,15.684-8.544,35.381c0.096,7.891,1.154,15.476,3.141,25.245
		c1.246,6.124,6.336,29.951,20.73,45.618c37.688-11.114,65.199-45.975,65.199-87.265C235.999,94.784,195.269,54.055,145.027,54.055z
		 M88.471,152.896l-3.105-2.488c0.586-0.167,2.127-0.642,3.727-1.955c2.212-1.816,12.994-12.364,25.522-2.197l3.289,2.776
		c0,0-3.207,2.197-3.72,2.556C109.42,154.925,98.771,161.454,88.471,152.896z M113.441,182.88c-0.582,0.233-4.174,1.721-4.174,1.721
		l-0.529-4.273c-1.672-16.05,13.056-19.319,15.786-20.181c1.974-0.622,3.214-1.654,3.673-2.054l0.388,3.961
		C130.128,175.358,118.84,180.712,113.441,182.88z M126.309,136.933c-8.12-1.602-25.316-6.1-26.68-25.105l-0.506-5.64
		c0.749,0.437,2.754,1.551,5.679,1.899c4.045,0.481,25.497,1.155,27.406,24.034l0.391,6.113
		C132.599,138.233,127.183,137.105,126.309,136.933z M142.714,108.369l-2.426,4.277c0,0-3.141-3.139-3.652-3.639
		c-4.749-4.647-14.32-15.23-6.878-28.595l2.141-4.01c0.311,0.622,1.168,2.252,2.979,3.772
		C137.383,82.277,151.494,92.164,142.714,108.369z M158.886,153.708c-1.672-16.051,13.055-19.32,15.786-20.181
		c1.974-0.623,3.214-1.654,3.674-2.054l0.388,3.961c1.542,13.304-9.746,18.659-15.145,20.826c-0.581,0.233-4.174,1.721-4.174,1.721
		L158.886,153.708z M186.082,183.53c-12.849,3.779-20.042-6.436-23.095-11.388c-0.329-0.533-2.404-3.82-2.404-3.82l4.121-1.248
		c15.533-4.374,21.256,9.585,22.568,12.13c0.949,1.839,2.176,2.886,2.648,3.271L186.082,183.53z M208.685,147.026
		c-4.217,12.712-16.71,12.801-22.52,12.487c-0.625-0.034-4.509-0.203-4.509-0.203l1.324-4.097
		c5.259-15.256,19.99-12.003,22.829-11.631c2.052,0.269,3.612-0.143,4.197-0.311L208.685,147.026z"/>
</g>
</svg>
