<?xml version="1.0" encoding="utf-8"?>
<!-- Generator: Adobe Illustrator 23.0.6, SVG Export Plug-In . SVG Version: 6.00 Build 0)  -->
<svg version="1.1" id="Layer_1" xmlns="http://www.w3.org/2000/svg" xmlns:xlink="http://www.w3.org/1999/xlink" x="0px" y="0px"
	 viewBox="0 0 358.2 69.2" style="enable-background:new 0 0 358.2 69.2;" xml:space="preserve">
<style type="text/css">
	.st0{fill:#535778;}
	.st1{fill-rule:evenodd;clip-rule:evenodd;fill:#323E64;}
	.st2{fill-rule:evenodd;clip-rule:evenodd;fill:#7B79A1;}
	.st3{fill-rule:evenodd;clip-rule:evenodd;fill:#C4C3CF;}
	.st4{fill-rule:evenodd;clip-rule:evenodd;fill:#AEACBD;}
	.st5{fill:#7D7C96;}
</style>
<g>
	<g>
		<path class="st0" d="M6,65.3v0.4H0v-0.4h0.5c0.6,0,1-0.2,1.3-0.5C1.9,64.6,2,64.1,2,63.3v-9c0-0.7,0-1.2-0.1-1.4
			c-0.1-0.2-0.2-0.3-0.4-0.4c-0.3-0.2-0.6-0.2-0.9-0.2H0v-0.4h6v0.4H5.5c-0.6,0-1,0.2-1.2,0.5C4,52.9,4,53.4,4,54.3v9
			c0,0.7,0,1.2,0.1,1.4c0.1,0.2,0.2,0.3,0.4,0.4c0.3,0.2,0.6,0.2,0.9,0.2H6z"/>
		<path class="st0" d="M6.6,56h2.6l6,7.3v-5.6c0-0.6-0.1-1-0.2-1.1c-0.2-0.2-0.5-0.3-0.8-0.3h-0.3V56h3.4v0.3h-0.3
			c-0.4,0-0.7,0.1-0.9,0.4c-0.1,0.2-0.2,0.5-0.2,1v8.2h-0.3L9.1,58v6c0,0.6,0.1,1,0.2,1.1c0.2,0.2,0.5,0.3,0.8,0.3h0.3v0.3H7.1v-0.3
			h0.3c0.4,0,0.7-0.1,0.9-0.4c0.1-0.2,0.2-0.5,0.2-1v-6.8c-0.3-0.3-0.5-0.5-0.6-0.7s-0.4-0.2-0.6-0.3c-0.1,0-0.3-0.1-0.6-0.1V56z"/>
		<path class="st0" d="M24.3,55.8v3.4h-0.3c-0.1-0.6-0.2-1.2-0.5-1.5c-0.2-0.4-0.5-0.7-1-0.9c-0.4-0.2-0.8-0.3-1.3-0.3
			c-0.5,0-0.9,0.2-1.2,0.5c-0.3,0.3-0.5,0.6-0.5,1c0,0.3,0.1,0.6,0.3,0.8c0.3,0.4,1,0.8,2.1,1.4c0.9,0.5,1.5,0.9,1.9,1.1
			c0.3,0.3,0.6,0.6,0.8,0.9c0.2,0.4,0.3,0.7,0.3,1.1c0,0.7-0.3,1.4-0.9,1.9c-0.6,0.5-1.3,0.8-2.2,0.8c-0.3,0-0.5,0-0.8-0.1
			c-0.1,0-0.5-0.1-0.9-0.3c-0.5-0.2-0.8-0.2-0.9-0.2c-0.1,0-0.2,0-0.3,0.1c-0.1,0.1-0.1,0.2-0.2,0.4h-0.3v-3.3h0.3
			c0.1,0.7,0.3,1.2,0.5,1.6c0.2,0.3,0.5,0.6,1,0.9s0.9,0.3,1.4,0.3c0.6,0,1.1-0.2,1.4-0.5c0.3-0.3,0.5-0.7,0.5-1.1
			c0-0.2-0.1-0.5-0.2-0.7c-0.1-0.2-0.3-0.5-0.6-0.7c-0.2-0.1-0.7-0.4-1.5-0.9c-0.8-0.5-1.4-0.8-1.8-1.1c-0.4-0.3-0.6-0.6-0.8-0.9
			c-0.2-0.3-0.3-0.7-0.3-1.1c0-0.7,0.3-1.3,0.8-1.8c0.5-0.5,1.2-0.8,2-0.8c0.5,0,1.1,0.1,1.6,0.4c0.3,0.1,0.5,0.2,0.6,0.2
			c0.1,0,0.2,0,0.3-0.1c0.1-0.1,0.1-0.2,0.2-0.4H24.3z"/>
		<path class="st0" d="M34.5,56l0.1,2.3h-0.3c-0.1-0.4-0.1-0.7-0.2-0.9c-0.1-0.3-0.3-0.5-0.6-0.6c-0.2-0.1-0.6-0.2-1-0.2h-1.4V64
			c0,0.6,0.1,1,0.2,1.1c0.2,0.2,0.5,0.3,0.8,0.3h0.3v0.3h-4.1v-0.3h0.3c0.4,0,0.7-0.1,0.9-0.4c0.1-0.2,0.2-0.5,0.2-1v-7.4h-1.2
			c-0.5,0-0.8,0-1,0.1c-0.2,0.1-0.5,0.3-0.6,0.5c-0.2,0.3-0.3,0.6-0.3,1h-0.3l0.1-2.3H34.5z"/>
		<path class="st0" d="M39.7,65.5v0.3h-4.2v-0.3h0.3c0.4,0,0.7-0.1,0.9-0.4c0.1-0.2,0.2-0.5,0.2-1.1v-6.3c0-0.5,0-0.8-0.1-1
			c0-0.1-0.1-0.2-0.3-0.3c-0.2-0.1-0.4-0.2-0.7-0.2h-0.3V56h4.2v0.3h-0.4c-0.4,0-0.7,0.1-0.9,0.4c-0.1,0.2-0.2,0.5-0.2,1.1V64
			c0,0.5,0,0.8,0.1,1c0,0.1,0.1,0.2,0.3,0.3c0.2,0.1,0.4,0.2,0.7,0.2H39.7z"/>
		<path class="st0" d="M48.8,56l0.1,2.3h-0.3c-0.1-0.4-0.1-0.7-0.2-0.9c-0.1-0.3-0.3-0.5-0.6-0.6c-0.2-0.1-0.6-0.2-1-0.2h-1.4V64
			c0,0.6,0.1,1,0.2,1.1c0.2,0.2,0.5,0.3,0.8,0.3h0.3v0.3h-4.1v-0.3H43c0.4,0,0.7-0.1,0.9-0.4c0.1-0.2,0.2-0.5,0.2-1v-7.4h-1.2
			c-0.5,0-0.8,0-1,0.1c-0.2,0.1-0.5,0.3-0.6,0.5c-0.2,0.3-0.3,0.6-0.3,1h-0.3l0.1-2.3H48.8z"/>
		<path class="st0" d="M56.5,56.3V56h3.4v0.3h-0.4c-0.4,0-0.7,0.2-0.9,0.5c-0.1,0.1-0.2,0.5-0.2,1v3.9c0,1-0.1,1.7-0.3,2.3
			c-0.2,0.5-0.6,1-1.1,1.4c-0.6,0.4-1.3,0.6-2.3,0.6c-1.1,0-1.9-0.2-2.4-0.6c-0.6-0.4-0.9-0.9-1.2-1.5c-0.2-0.4-0.2-1.2-0.2-2.4
			v-3.8c0-0.6-0.1-1-0.2-1.2c-0.2-0.2-0.4-0.3-0.8-0.3h-0.4V56h4.2v0.3h-0.4c-0.4,0-0.7,0.1-0.9,0.4c-0.1,0.2-0.2,0.5-0.2,1.1V62
			c0,0.4,0,0.8,0.1,1.3c0.1,0.5,0.2,0.9,0.4,1.1c0.2,0.3,0.4,0.5,0.8,0.7c0.3,0.2,0.8,0.3,1.3,0.3c0.6,0,1.2-0.1,1.7-0.4
			c0.5-0.3,0.8-0.6,1-1.1c0.2-0.4,0.3-1.2,0.3-2.2v-3.9c0-0.6-0.1-1-0.2-1.1c-0.2-0.2-0.5-0.3-0.8-0.3H56.5z"/>
		<path class="st0" d="M68.8,56l0.1,2.3h-0.3c-0.1-0.4-0.1-0.7-0.2-0.9c-0.1-0.3-0.3-0.5-0.6-0.6c-0.2-0.1-0.6-0.2-1-0.2h-1.4V64
			c0,0.6,0.1,1,0.2,1.1c0.2,0.2,0.5,0.3,0.8,0.3h0.3v0.3h-4.1v-0.3H63c0.4,0,0.7-0.1,0.9-0.4c0.1-0.2,0.2-0.5,0.2-1v-7.4h-1.2
			c-0.5,0-0.8,0-1,0.1c-0.2,0.1-0.5,0.3-0.6,0.5c-0.2,0.3-0.3,0.6-0.3,1h-0.3l0.1-2.3H68.8z"/>
		<path class="st0" d="M72.5,56.5v3.8h2.1c0.6,0,0.9-0.1,1.1-0.3c0.2-0.2,0.4-0.6,0.4-1.2h0.3v3.4h-0.3c-0.1-0.5-0.1-0.8-0.2-0.9
			c-0.1-0.2-0.2-0.3-0.4-0.4c-0.2-0.1-0.5-0.1-0.9-0.1h-2.1v3.2c0,0.4,0,0.7,0.1,0.8c0,0.1,0.1,0.2,0.2,0.2c0.1,0.1,0.3,0.1,0.5,0.1
			H75c0.6,0,0.9,0,1.2-0.1c0.2-0.1,0.5-0.2,0.7-0.5c0.3-0.3,0.6-0.7,0.9-1.3h0.3l-0.8,2.4h-7.5v-0.3h0.3c0.2,0,0.4-0.1,0.7-0.2
			c0.2-0.1,0.3-0.2,0.3-0.3c0.1-0.2,0.1-0.5,0.1-0.9v-6.3c0-0.6-0.1-1-0.2-1.1c-0.2-0.2-0.5-0.3-0.9-0.3h-0.3V56h7.5l0.1,2.1h-0.3
			c-0.1-0.5-0.2-0.9-0.3-1.1c-0.1-0.2-0.3-0.3-0.5-0.4c-0.2-0.1-0.5-0.1-1-0.1H72.5z"/>
		<path class="st0" d="M88.9,58.8l-0.1,0.5h-1.1l-0.9,3.4c-0.4,1.5-0.8,2.7-1.1,3.5c-0.5,1.2-1.1,2-1.8,2.4c-0.5,0.3-1,0.5-1.4,0.5
			c-0.3,0-0.6-0.1-0.8-0.3c-0.2-0.1-0.2-0.3-0.2-0.5c0-0.2,0.1-0.3,0.2-0.4c0.1-0.1,0.3-0.2,0.5-0.2c0.1,0,0.3,0,0.4,0.1
			c0.1,0.1,0.1,0.2,0.1,0.3c0,0.1-0.1,0.2-0.2,0.3c-0.1,0.1-0.1,0.1-0.1,0.2c0,0,0,0.1,0.1,0.1c0,0,0.1,0.1,0.2,0.1
			c0.2,0,0.5-0.1,0.7-0.2c0.2-0.1,0.5-0.4,0.7-0.6c0.2-0.3,0.4-0.7,0.5-1.2c0.1-0.2,0.3-0.9,0.6-2.2l1.4-5.3h-1.4l0.1-0.5
			c0.4,0,0.7,0,0.9-0.1c0.2-0.1,0.3-0.2,0.5-0.3c0.1-0.2,0.3-0.5,0.6-0.9c0.3-0.6,0.6-1.1,0.9-1.5c0.4-0.5,0.8-0.8,1.2-1
			c0.4-0.2,0.8-0.3,1.2-0.3c0.4,0,0.7,0.1,1,0.3c0.2,0.2,0.4,0.4,0.4,0.7c0,0.2-0.1,0.3-0.2,0.5c-0.1,0.1-0.3,0.2-0.5,0.2
			c-0.2,0-0.3,0-0.4-0.1c-0.1-0.1-0.2-0.2-0.2-0.3c0-0.1,0-0.2,0.1-0.3c0.1-0.1,0.1-0.2,0.1-0.2c0-0.1,0-0.1-0.1-0.2
			c-0.1-0.1-0.2-0.1-0.3-0.1c-0.3,0-0.6,0.1-0.9,0.3c-0.3,0.3-0.7,0.7-0.9,1.3c-0.1,0.3-0.4,1.1-0.8,2.3H88.9z"/>
		<path class="st0" d="M95.8,61.1c0,0.8-0.2,1.6-0.6,2.3c-0.4,0.8-1,1.4-1.7,1.8c-0.7,0.4-1.5,0.7-2.2,0.7c-0.7,0-1.3-0.2-1.7-0.7
			c-0.5-0.5-0.7-1-0.7-1.8c0-0.8,0.2-1.5,0.7-2.3c0.4-0.8,1-1.4,1.8-1.8c0.7-0.4,1.4-0.7,2.1-0.7c0.7,0,1.3,0.2,1.7,0.7
			C95.6,59.8,95.8,60.4,95.8,61.1z M94.5,60.6c0-0.5-0.1-0.9-0.4-1.1c-0.2-0.3-0.5-0.4-0.9-0.4c-0.8,0-1.5,0.5-2.1,1.6
			c-0.6,1.1-1,2.2-1,3.3c0,0.5,0.1,0.9,0.4,1.1c0.2,0.3,0.6,0.4,0.9,0.4c0.7,0,1.4-0.5,2.1-1.6C94.2,62.8,94.5,61.7,94.5,60.6z"/>
		<path class="st0" d="M97.1,59.1l2.7-0.4l-1.1,3.8c0.9-1.6,1.7-2.6,2.5-3.3c0.4-0.4,0.8-0.5,1-0.5c0.2,0,0.3,0.1,0.4,0.2
			c0.1,0.1,0.1,0.2,0.1,0.4c0,0.3-0.1,0.7-0.3,1c-0.1,0.2-0.3,0.4-0.5,0.4c-0.1,0-0.2,0-0.3-0.1s-0.1-0.2-0.2-0.4
			c0-0.1,0-0.2-0.1-0.2c0,0-0.1-0.1-0.1-0.1c-0.1,0-0.2,0-0.2,0.1c-0.1,0.1-0.3,0.3-0.6,0.6c-0.4,0.5-0.9,1.2-1.4,2
			c-0.2,0.3-0.4,0.7-0.6,1.2c-0.2,0.6-0.3,1-0.4,1.1l-0.2,1h-1.2l1.4-4.9c0.2-0.6,0.2-1,0.2-1.2c0-0.1,0-0.2-0.1-0.2
			c-0.1-0.1-0.2-0.1-0.4-0.1c-0.1,0-0.3,0-0.6,0.1L97.1,59.1z"/>
		<path class="st0" d="M112.6,58.3h6.5v-4c0-0.7,0-1.2-0.1-1.4c-0.1-0.2-0.2-0.3-0.4-0.4c-0.3-0.2-0.6-0.2-0.9-0.2H117v-0.4h5.9v0.4
			h-0.5c-0.3,0-0.6,0.1-0.9,0.2c-0.2,0.1-0.4,0.3-0.4,0.5c-0.1,0.2-0.1,0.7-0.1,1.4v9c0,0.7,0,1.2,0.1,1.4c0.1,0.2,0.2,0.3,0.4,0.4
			c0.3,0.2,0.6,0.2,0.9,0.2h0.5v0.4H117v-0.4h0.5c0.6,0,1-0.2,1.2-0.5c0.2-0.2,0.3-0.7,0.3-1.6V59h-6.5v4.2c0,0.7,0,1.2,0.1,1.4
			c0.1,0.2,0.2,0.3,0.4,0.4c0.3,0.2,0.6,0.2,0.9,0.2h0.5v0.4h-6v-0.4h0.5c0.6,0,1-0.2,1.3-0.5c0.2-0.2,0.2-0.7,0.2-1.6v-9
			c0-0.7,0-1.2-0.1-1.4c-0.1-0.2-0.2-0.3-0.4-0.4c-0.3-0.2-0.6-0.2-0.9-0.2h-0.5v-0.4h6v0.4h-0.5c-0.3,0-0.6,0.1-0.9,0.2
			c-0.2,0.1-0.4,0.3-0.4,0.5c-0.1,0.2-0.1,0.7-0.1,1.4V58.3z"/>
		<path class="st0" d="M126.8,56.5v3.8h2.1c0.6,0,0.9-0.1,1.1-0.3c0.2-0.2,0.4-0.6,0.4-1.2h0.3v3.4h-0.3c-0.1-0.5-0.1-0.8-0.2-0.9
			c-0.1-0.2-0.2-0.3-0.4-0.4c-0.2-0.1-0.5-0.1-0.9-0.1h-2.1v3.2c0,0.4,0,0.7,0.1,0.8c0,0.1,0.1,0.2,0.2,0.2c0.1,0.1,0.3,0.1,0.5,0.1
			h1.7c0.6,0,0.9,0,1.2-0.1c0.2-0.1,0.5-0.2,0.7-0.5c0.3-0.3,0.6-0.7,0.9-1.3h0.3l-0.8,2.4H124v-0.3h0.3c0.2,0,0.4-0.1,0.7-0.2
			c0.2-0.1,0.3-0.2,0.3-0.3c0.1-0.2,0.1-0.5,0.1-0.9v-6.3c0-0.6-0.1-1-0.2-1.1c-0.2-0.2-0.5-0.3-0.9-0.3H124V56h7.5l0.1,2.1h-0.3
			c-0.1-0.5-0.2-0.9-0.3-1.1c-0.1-0.2-0.3-0.3-0.5-0.4c-0.2-0.1-0.5-0.1-1-0.1H126.8z"/>
		<path class="st0" d="M139.6,62.5h-3.8l-0.7,1.5c-0.2,0.4-0.2,0.7-0.2,0.8c0,0.1,0.1,0.3,0.2,0.4s0.4,0.2,0.9,0.2v0.3H133v-0.3
			c0.4-0.1,0.7-0.2,0.8-0.3c0.2-0.2,0.5-0.7,0.8-1.4l3.4-8h0.3l3.4,8.1c0.3,0.7,0.5,1.1,0.7,1.3c0.2,0.2,0.5,0.3,0.9,0.3v0.3h-3.8
			v-0.3c0.4,0,0.6-0.1,0.8-0.2c0.1-0.1,0.2-0.2,0.2-0.4c0-0.2-0.1-0.5-0.3-1L139.6,62.5z M139.4,61.9l-1.7-3.9l-1.7,3.9H139.4z"/>
		<path class="st0" d="M152.2,63l0.2,0l-0.8,2.6H144v-0.3h0.4c0.4,0,0.7-0.1,0.9-0.4c0.1-0.2,0.2-0.5,0.2-1.1v-6.3
			c0-0.6-0.1-1-0.2-1.1c-0.2-0.2-0.5-0.3-0.8-0.3H144V56h4.4v0.3c-0.5,0-0.9,0-1.1,0.1c-0.2,0.1-0.4,0.2-0.4,0.4
			c-0.1,0.2-0.1,0.5-0.1,1.1V64c0,0.4,0,0.7,0.1,0.8c0.1,0.1,0.1,0.2,0.3,0.2c0.1,0,0.5,0.1,1.1,0.1h0.7c0.7,0,1.3-0.1,1.6-0.2
			c0.3-0.1,0.6-0.3,0.8-0.6C151.7,64.1,151.9,63.6,152.2,63z"/>
		<path class="st0" d="M160.1,56l0.1,2.3h-0.3c-0.1-0.4-0.1-0.7-0.2-0.9c-0.1-0.3-0.3-0.5-0.6-0.6c-0.2-0.1-0.6-0.2-1-0.2h-1.4V64
			c0,0.6,0.1,1,0.2,1.1c0.2,0.2,0.5,0.3,0.8,0.3h0.3v0.3H154v-0.3h0.3c0.4,0,0.7-0.1,0.9-0.4c0.1-0.2,0.2-0.5,0.2-1v-7.4h-1.2
			c-0.5,0-0.8,0-1,0.1c-0.2,0.1-0.5,0.3-0.6,0.5c-0.2,0.3-0.3,0.6-0.3,1H152l0.1-2.3H160.1z"/>
		<path class="st0" d="M163.8,60.5h4.5v-2.8c0-0.5,0-0.8-0.1-1c0-0.1-0.1-0.2-0.3-0.3c-0.2-0.1-0.4-0.2-0.7-0.2h-0.3V56h4.2v0.3
			h-0.3c-0.2,0-0.4,0.1-0.7,0.2c-0.2,0.1-0.3,0.2-0.3,0.3c-0.1,0.2-0.1,0.5-0.1,1V64c0,0.5,0,0.8,0.1,1c0,0.1,0.1,0.2,0.3,0.3
			c0.2,0.1,0.4,0.2,0.7,0.2h0.3v0.3h-4.2v-0.3h0.3c0.4,0,0.7-0.1,0.9-0.4c0.1-0.2,0.2-0.5,0.2-1.1v-3h-4.5v3c0,0.5,0,0.8,0.1,1
			c0,0.1,0.1,0.2,0.3,0.3c0.2,0.1,0.4,0.2,0.7,0.2h0.4v0.3H161v-0.3h0.3c0.4,0,0.7-0.1,0.9-0.4c0.1-0.2,0.2-0.5,0.2-1.1v-6.3
			c0-0.5,0-0.8-0.1-1c0-0.1-0.1-0.2-0.3-0.3c-0.2-0.1-0.4-0.2-0.7-0.2H161V56h4.2v0.3h-0.4c-0.2,0-0.4,0.1-0.7,0.2
			c-0.1,0.1-0.3,0.2-0.3,0.3c-0.1,0.2-0.1,0.5-0.1,1V60.5z"/>
		<path class="st0" d="M184.6,58.7l-1.5,5.3l-0.2,0.7c0,0.1,0,0.1,0,0.2c0,0.1,0,0.2,0.1,0.2c0,0,0.1,0.1,0.2,0.1
			c0.1,0,0.2,0,0.3-0.1c0.2-0.2,0.5-0.5,0.8-0.9l0.3,0.2c-0.4,0.5-0.7,1-1.1,1.2c-0.4,0.3-0.7,0.4-1.1,0.4c-0.2,0-0.4-0.1-0.5-0.2
			c-0.1-0.1-0.2-0.3-0.2-0.5c0-0.3,0.1-0.6,0.2-1l0.2-0.6c-0.7,0.9-1.3,1.5-1.9,1.9c-0.4,0.3-0.8,0.4-1.2,0.4c-0.4,0-0.7-0.2-1-0.5
			c-0.3-0.3-0.4-0.7-0.4-1.3c0-0.8,0.2-1.7,0.7-2.6c0.5-0.9,1.1-1.7,1.9-2.2c0.6-0.4,1.2-0.7,1.7-0.7c0.3,0,0.6,0.1,0.8,0.2
			c0.2,0.2,0.4,0.4,0.5,0.8l0.3-0.9L184.6,58.7z M181.8,59.1c-0.3,0-0.7,0.2-1.1,0.5c-0.5,0.4-1,1.1-1.4,2c-0.4,0.9-0.6,1.7-0.6,2.4
			c0,0.4,0.1,0.6,0.3,0.8c0.2,0.2,0.4,0.3,0.6,0.3c0.6,0,1.2-0.4,1.9-1.3c0.9-1.1,1.3-2.3,1.3-3.4c0-0.4-0.1-0.8-0.3-1
			C182.4,59.2,182.1,59.1,181.8,59.1z"/>
		<path class="st0" d="M188.9,58.7l-1,3.6c1-1.5,1.7-2.4,2.2-2.9c0.5-0.5,1-0.7,1.5-0.7c0.3,0,0.5,0.1,0.6,0.3
			c0.2,0.2,0.3,0.4,0.3,0.7c0,0.3-0.1,0.7-0.2,1.2l-1,3.3c-0.1,0.4-0.2,0.6-0.2,0.7c0,0.1,0,0.1,0.1,0.2c0,0,0.1,0.1,0.1,0.1
			c0.1,0,0.1,0,0.2-0.1c0.3-0.2,0.6-0.6,0.9-1l0.2,0.1c-0.5,0.7-0.9,1.2-1.4,1.5c-0.3,0.2-0.6,0.3-0.8,0.3c-0.2,0-0.3-0.1-0.5-0.2
			c-0.1-0.1-0.2-0.3-0.2-0.5c0-0.2,0.1-0.7,0.3-1.3l0.9-3.1c0.1-0.4,0.2-0.7,0.2-0.9c0-0.1,0-0.2-0.1-0.3c-0.1-0.1-0.2-0.1-0.2-0.1
			c-0.1,0-0.3,0.1-0.5,0.2c-0.4,0.2-0.8,0.6-1.2,1.2c-0.4,0.5-0.9,1.2-1.3,2.1c-0.2,0.4-0.4,0.9-0.6,1.5l-0.4,1.3h-1.2l1.4-4.9
			c0.2-0.6,0.2-0.9,0.2-1.1c0-0.1,0-0.2-0.1-0.3c-0.1-0.1-0.2-0.1-0.3-0.1c-0.1,0-0.2,0-0.3,0l-0.3,0l0-0.3L188.9,58.7z"/>
		<path class="st0" d="M202.2,54.6l-2.7,9.2c-0.1,0.5-0.2,0.8-0.2,1c0,0.1,0,0.1,0.1,0.1c0,0,0.1,0.1,0.1,0.1c0.1,0,0.1,0,0.2-0.1
			c0.2-0.1,0.5-0.4,0.9-0.9l0.3,0.2c-0.4,0.5-0.8,0.9-1.1,1.3c-0.4,0.3-0.7,0.5-1.1,0.5c-0.2,0-0.3-0.1-0.4-0.2
			c-0.1-0.1-0.2-0.3-0.2-0.5c0-0.3,0.1-0.7,0.2-1.2l0.3-1c-0.8,1.2-1.4,2-2.1,2.4c-0.4,0.3-0.8,0.5-1.2,0.5c-0.4,0-0.7-0.2-1-0.5
			c-0.3-0.4-0.4-0.8-0.4-1.4c0-0.8,0.2-1.6,0.7-2.5c0.5-0.9,1.1-1.6,2-2.1c0.6-0.4,1.2-0.7,1.8-0.7c0.3,0,0.5,0.1,0.7,0.2
			c0.2,0.1,0.4,0.3,0.6,0.6l0.8-2.7c0.1-0.2,0.1-0.3,0.1-0.5c0.1-0.2,0.1-0.4,0.1-0.5c0-0.1,0-0.2-0.1-0.3c-0.1-0.1-0.2-0.1-0.4-0.1
			c-0.1,0-0.3,0-0.6,0.1v-0.3L202.2,54.6z M199.3,60.2c0-0.3-0.1-0.6-0.3-0.8c-0.2-0.2-0.4-0.3-0.7-0.3c-0.7,0-1.3,0.5-2.1,1.6
			c-0.7,1.1-1.1,2.1-1.1,3.1c0,0.4,0.1,0.7,0.3,0.9c0.2,0.2,0.4,0.3,0.6,0.3c0.5,0,1.2-0.6,2-1.8C198.9,62.1,199.3,61,199.3,60.2z"
			/>
		<path class="st0" d="M211.6,58.3h6.5v-4c0-0.7,0-1.2-0.1-1.4c-0.1-0.2-0.2-0.3-0.4-0.4c-0.3-0.2-0.6-0.2-0.9-0.2h-0.5v-0.4h5.9
			v0.4h-0.5c-0.3,0-0.6,0.1-0.9,0.2c-0.2,0.1-0.4,0.3-0.4,0.5c-0.1,0.2-0.1,0.7-0.1,1.4v9c0,0.7,0,1.2,0.1,1.4
			c0.1,0.2,0.2,0.3,0.4,0.4c0.3,0.2,0.6,0.2,0.9,0.2h0.5v0.4h-5.9v-0.4h0.5c0.6,0,1-0.2,1.2-0.5c0.2-0.2,0.3-0.7,0.3-1.6V59h-6.5
			v4.2c0,0.7,0,1.2,0.1,1.4c0.1,0.2,0.2,0.3,0.4,0.4c0.3,0.2,0.6,0.2,0.9,0.2h0.5v0.4h-6v-0.4h0.5c0.6,0,1-0.2,1.3-0.5
			c0.2-0.2,0.2-0.7,0.2-1.6v-9c0-0.7,0-1.2-0.1-1.4c-0.1-0.2-0.2-0.3-0.4-0.4c-0.3-0.2-0.6-0.2-0.9-0.2h-0.5v-0.4h6v0.4h-0.5
			c-0.3,0-0.6,0.1-0.9,0.2c-0.2,0.1-0.4,0.3-0.4,0.5c-0.1,0.2-0.1,0.7-0.1,1.4V58.3z"/>
		<path class="st0" d="M229.6,56.3V56h3.4v0.3h-0.4c-0.4,0-0.7,0.2-0.9,0.5c-0.1,0.1-0.2,0.5-0.2,1v3.9c0,1-0.1,1.7-0.3,2.3
			c-0.2,0.5-0.6,1-1.1,1.4c-0.6,0.4-1.3,0.6-2.3,0.6c-1.1,0-1.9-0.2-2.4-0.6c-0.6-0.4-0.9-0.9-1.2-1.5c-0.2-0.4-0.2-1.2-0.2-2.4
			v-3.8c0-0.6-0.1-1-0.2-1.2c-0.2-0.2-0.4-0.3-0.8-0.3h-0.4V56h4.2v0.3h-0.4c-0.4,0-0.7,0.1-0.9,0.4c-0.1,0.2-0.2,0.5-0.2,1.1V62
			c0,0.4,0,0.8,0.1,1.3c0.1,0.5,0.2,0.9,0.4,1.1c0.2,0.3,0.4,0.5,0.8,0.7c0.3,0.2,0.8,0.3,1.3,0.3c0.6,0,1.2-0.1,1.7-0.4
			c0.5-0.3,0.8-0.6,1-1.1c0.2-0.4,0.3-1.2,0.3-2.2v-3.9c0-0.6-0.1-1-0.2-1.1c-0.2-0.2-0.5-0.3-0.8-0.3H229.6z"/>
		<path class="st0" d="M239.4,65.7l-3.8-8.2V64c0,0.6,0.1,1,0.2,1.1c0.2,0.2,0.5,0.3,0.8,0.3h0.3v0.3h-3.4v-0.3h0.3
			c0.4,0,0.7-0.1,0.9-0.4c0.1-0.2,0.2-0.5,0.2-1v-6.4c0-0.4,0-0.7-0.1-0.9c-0.1-0.1-0.2-0.3-0.4-0.3c-0.2-0.1-0.5-0.1-0.9-0.1V56
			h2.8l3.5,7.6l3.5-7.6h2.8v0.3h-0.3c-0.4,0-0.7,0.1-0.9,0.4c-0.1,0.2-0.2,0.5-0.2,1V64c0,0.6,0.1,1,0.2,1.1
			c0.2,0.2,0.5,0.3,0.8,0.3h0.3v0.3H242v-0.3h0.3c0.4,0,0.7-0.1,0.9-0.4c0.1-0.2,0.2-0.5,0.2-1v-6.5l-3.8,8.2H239.4z"/>
		<path class="st0" d="M253.4,62.5h-3.8L249,64c-0.2,0.4-0.2,0.7-0.2,0.8c0,0.1,0.1,0.3,0.2,0.4c0.1,0.1,0.4,0.2,0.9,0.2v0.3h-3.1
			v-0.3c0.4-0.1,0.7-0.2,0.8-0.3c0.2-0.2,0.5-0.7,0.8-1.4l3.4-8h0.3l3.4,8.1c0.3,0.7,0.5,1.1,0.7,1.3c0.2,0.2,0.5,0.3,0.9,0.3v0.3
			h-3.8v-0.3c0.4,0,0.6-0.1,0.8-0.2c0.1-0.1,0.2-0.2,0.2-0.4c0-0.2-0.1-0.5-0.3-1L253.4,62.5z M253.2,61.9l-1.7-3.9l-1.7,3.9H253.2z
			"/>
		<path class="st0" d="M257.3,56h2.6l6,7.3v-5.6c0-0.6-0.1-1-0.2-1.1c-0.2-0.2-0.5-0.3-0.8-0.3h-0.3V56h3.4v0.3h-0.3
			c-0.4,0-0.7,0.1-0.9,0.4c-0.1,0.2-0.2,0.5-0.2,1v8.2h-0.3l-6.4-7.8v6c0,0.6,0.1,1,0.2,1.1c0.2,0.2,0.5,0.3,0.8,0.3h0.3v0.3h-3.4
			v-0.3h0.3c0.4,0,0.7-0.1,0.9-0.4c0.1-0.2,0.2-0.5,0.2-1v-6.8c-0.3-0.3-0.5-0.5-0.6-0.7c-0.1-0.1-0.4-0.2-0.6-0.3
			c-0.1,0-0.3-0.1-0.6-0.1V56z"/>
		<path class="st0" d="M278.2,59.2v4c0,0.9,0.1,1.4,0.3,1.6c0.3,0.3,0.7,0.5,1.2,0.5h0.5v0.4h-6v-0.4h0.5c0.6,0,1-0.2,1.3-0.6
			c0.1-0.2,0.2-0.7,0.2-1.5v-9c0-0.9-0.1-1.4-0.3-1.6c-0.3-0.3-0.7-0.5-1.2-0.5h-0.5v-0.4h5.1c1.2,0,2.2,0.1,2.9,0.4
			c0.7,0.3,1.3,0.7,1.8,1.3c0.5,0.6,0.7,1.3,0.7,2.2c0,1.1-0.4,2.1-1.1,2.8c-0.7,0.7-1.8,1.1-3.2,1.1c-0.3,0-0.7,0-1.1-0.1
			C279,59.4,278.6,59.3,278.2,59.2z M278.2,58.6c0.4,0.1,0.7,0.1,1,0.2c0.3,0,0.5,0.1,0.7,0.1c0.7,0,1.3-0.3,1.8-0.8
			c0.5-0.5,0.8-1.3,0.8-2.1c0-0.6-0.1-1.2-0.4-1.7c-0.2-0.5-0.6-0.9-1-1.2c-0.5-0.3-1-0.4-1.5-0.4c-0.3,0-0.8,0.1-1.3,0.2V58.6z"/>
		<path class="st0" d="M290.2,55.8c1.3,0,2.4,0.5,3.3,1.4c0.9,1,1.4,2.2,1.4,3.6c0,1.5-0.5,2.7-1.4,3.7c-0.9,1-2.1,1.5-3.4,1.5
			c-1.3,0-2.5-0.5-3.4-1.4c-0.9-1-1.4-2.2-1.4-3.7c0-1.5,0.5-2.8,1.6-3.8C287.8,56.2,288.9,55.8,290.2,55.8z M290,56.3
			c-0.9,0-1.6,0.3-2.1,1c-0.7,0.8-1,2-1,3.5c0,1.6,0.3,2.8,1,3.7c0.5,0.7,1.2,1,2.1,1c0.9,0,1.7-0.4,2.3-1.1
			c0.6-0.7,0.9-1.8,0.9-3.4c0-1.7-0.3-2.9-1-3.7C291.7,56.6,291,56.3,290,56.3z"/>
		<path class="st0" d="M303.7,56l0.1,2.3h-0.3c-0.1-0.4-0.1-0.7-0.2-0.9c-0.1-0.3-0.3-0.5-0.6-0.6c-0.2-0.1-0.6-0.2-1-0.2h-1.4V64
			c0,0.6,0.1,1,0.2,1.1c0.2,0.2,0.5,0.3,0.8,0.3h0.3v0.3h-4.1v-0.3h0.3c0.4,0,0.7-0.1,0.9-0.4c0.1-0.2,0.2-0.5,0.2-1v-7.4h-1.2
			c-0.5,0-0.8,0-1,0.1c-0.2,0.1-0.5,0.3-0.6,0.5c-0.2,0.3-0.3,0.6-0.3,1h-0.3l0.1-2.3H303.7z"/>
		<path class="st0" d="M307.5,56.5v3.8h2.1c0.6,0,0.9-0.1,1.1-0.3c0.2-0.2,0.4-0.6,0.4-1.2h0.3v3.4h-0.3c-0.1-0.5-0.1-0.8-0.2-0.9
			c-0.1-0.2-0.2-0.3-0.4-0.4c-0.2-0.1-0.5-0.1-0.9-0.1h-2.1v3.2c0,0.4,0,0.7,0.1,0.8c0,0.1,0.1,0.2,0.2,0.2s0.3,0.1,0.5,0.1h1.7
			c0.5,0,0.9,0,1.2-0.1c0.2-0.1,0.5-0.2,0.7-0.5c0.3-0.3,0.6-0.7,0.9-1.3h0.3l-0.8,2.4h-7.5v-0.3h0.3c0.2,0,0.4-0.1,0.7-0.2
			c0.2-0.1,0.3-0.2,0.3-0.3c0.1-0.2,0.1-0.5,0.1-0.9v-6.3c0-0.6-0.1-1-0.2-1.1c-0.2-0.2-0.5-0.3-0.9-0.3h-0.3V56h7.5l0.1,2.1h-0.3
			c-0.1-0.5-0.2-0.9-0.3-1.1c-0.1-0.2-0.3-0.3-0.5-0.4c-0.2-0.1-0.5-0.1-1-0.1H307.5z"/>
		<path class="st0" d="M313.4,56h2.6l6,7.3v-5.6c0-0.6-0.1-1-0.2-1.1c-0.2-0.2-0.5-0.3-0.8-0.3h-0.3V56h3.4v0.3h-0.3
			c-0.4,0-0.7,0.1-0.9,0.4c-0.1,0.2-0.2,0.5-0.2,1v8.2h-0.3L316,58v6c0,0.6,0.1,1,0.2,1.1c0.2,0.2,0.5,0.3,0.8,0.3h0.3v0.3H314v-0.3
			h0.3c0.4,0,0.7-0.1,0.9-0.4c0.1-0.2,0.2-0.5,0.2-1v-6.8c-0.3-0.3-0.5-0.5-0.6-0.7c-0.1-0.1-0.4-0.2-0.6-0.3
			c-0.1,0-0.3-0.1-0.6-0.1V56z"/>
		<path class="st0" d="M332.9,56l0.1,2.3h-0.3c-0.1-0.4-0.1-0.7-0.2-0.9c-0.1-0.3-0.3-0.5-0.6-0.6c-0.2-0.1-0.6-0.2-1-0.2h-1.4V64
			c0,0.6,0.1,1,0.2,1.1c0.2,0.2,0.5,0.3,0.8,0.3h0.3v0.3h-4.1v-0.3h0.3c0.4,0,0.7-0.1,0.9-0.4c0.1-0.2,0.2-0.5,0.2-1v-7.4h-1.2
			c-0.5,0-0.8,0-1,0.1c-0.2,0.1-0.5,0.3-0.6,0.5c-0.2,0.3-0.3,0.6-0.3,1h-0.3L325,56H332.9z"/>
		<path class="st0" d="M338.2,65.5v0.3H334v-0.3h0.3c0.4,0,0.7-0.1,0.9-0.4c0.1-0.2,0.2-0.5,0.2-1.1v-6.3c0-0.5,0-0.8-0.1-1
			c0-0.1-0.1-0.2-0.3-0.3c-0.2-0.1-0.4-0.2-0.7-0.2H334V56h4.2v0.3h-0.4c-0.4,0-0.7,0.1-0.9,0.4c-0.1,0.2-0.2,0.5-0.2,1.1V64
			c0,0.5,0,0.8,0.1,1c0,0.1,0.1,0.2,0.3,0.3c0.2,0.1,0.4,0.2,0.7,0.2H338.2z"/>
		<path class="st0" d="M345.4,62.5h-3.8L341,64c-0.2,0.4-0.2,0.7-0.2,0.8c0,0.1,0.1,0.3,0.2,0.4c0.1,0.1,0.4,0.2,0.9,0.2v0.3h-3.1
			v-0.3c0.4-0.1,0.7-0.2,0.8-0.3c0.2-0.2,0.5-0.7,0.8-1.4l3.4-8h0.3l3.4,8.1c0.3,0.7,0.5,1.1,0.7,1.3c0.2,0.2,0.5,0.3,0.9,0.3v0.3
			h-3.8v-0.3c0.4,0,0.6-0.1,0.8-0.2c0.1-0.1,0.2-0.2,0.2-0.4c0-0.2-0.1-0.5-0.3-1L345.4,62.5z M345.2,61.9l-1.7-3.9l-1.7,3.9H345.2z
			"/>
		<path class="st0" d="M358,63l0.2,0l-0.8,2.6h-7.5v-0.3h0.4c0.4,0,0.7-0.1,0.9-0.4c0.1-0.2,0.2-0.5,0.2-1.1v-6.3
			c0-0.6-0.1-1-0.2-1.1c-0.2-0.2-0.5-0.3-0.8-0.3h-0.4V56h4.4v0.3c-0.5,0-0.9,0-1.1,0.1c-0.2,0.1-0.4,0.2-0.4,0.4
			c-0.1,0.2-0.1,0.5-0.1,1.1V64c0,0.4,0,0.7,0.1,0.8c0.1,0.1,0.1,0.2,0.3,0.2c0.1,0,0.5,0.1,1.1,0.1h0.7c0.7,0,1.3-0.1,1.6-0.2
			c0.3-0.1,0.6-0.3,0.8-0.6C357.5,64.1,357.7,63.6,358,63z"/>
	</g>
	<path class="st1" d="M290.5,0c12.9,0,25.8,0,38.7,0c0,13.1,0,26.1,0,39.2c-12.9,0-25.8,0-38.7,0C290.5,26.1,290.5,13.1,290.5,0z"/>
	<path class="st2" d="M176.7,23.1c2.4,1.7,1-3.7,1.4-5.5c1.1,1.2,0.2,4.4,0.5,6.5C177.7,23.9,176.3,24.4,176.7,23.1z"/>
	<g>
		<path class="st3" d="M28.7,17.1c-0.7,0.4-1.3,0.9-1.9,1.4c0.3-0.2,0.7-0.3,1-0.5c0.6,0,0.4,0.8,0.9,0.9c0,0.1-0.1,0.3-0.1,0.4
			c0.7-0.6,1.4-1,2.3-1.3c0.2-0.4,0.5-0.7,0.5-1.4c-0.5,0.1-1.1,0-1.5-0.8c-0.2-1.6,0.5-1.1,2.5-1.5c0.2,0,0.9-0.1,1.1-0.1
			c0.6-0.1,1.1-0.3,1.2-0.8c-0.5-1-2.9-0.2-4.1-0.5c-1.4-0.1-2.4,0.4-3.2,0.9C26.8,15.9,28.8,15.3,28.7,17.1z"/>
		<path class="st3" d="M58.6,19.4c-0.6-2-2.3-2.7-4.6-1.8c-1.2,0.4-1.8,1.6-3.2,1.8c0.1-1.2-1.8-0.4-1.4-1.8c0.2-2,2.6-1.7,2.3-4.1
			c0-0.6-0.2-1-0.5-1.4c-2.8-0.6-4.1,2.6-6.5,0.9c-0.3-1.9,1.5-1.6,0.9-3.7c-1.3-0.9-2-0.9-3.2,0c-1.3,3-3.4,5.2-6,6.9
			c-2,0.4-2.8,2.1-4.6,2.8c-0.9,4.3-3.9,9-7.4,9.2c0.1-0.6,0.3-1.2,0.4-1.9c-0.8,0.8-1.7,1.4-2.6,1.7c0,0.7,0,1.3,0,2.1
			c0.8,2.1,4.9,3.1,8.1,1.3c1-0.8,2.1-1.4,3.2-2.1c-0.2-0.4-0.7-0.6-0.9-1.2c1.3-0.9,4.1-2.5,5.9-1.4c1.1-0.4,2.3-0.5,3.2,0
			c-1,1.9-2.9,2.9-5.1,3.7c-0.1,0.7-0.8,0.8-0.9,1.4c0,0.8,0.1,1.4,0.5,1.8c1,1,1.5-0.1,2.3-0.5c2-2.7,5.4-5.6,10.1-4.1
			c-0.3-3.2,3.4-2.5,4.6-4.1c0.8-0.9,1.2-2.1,2.8-2.3c0.3-0.7,0.7-1.1,1.4-1.4c0-0.6,0.4-0.2,0.2-0.9c0.2,0,0.5-0.4,0.7-0.4
			C58.6,19.7,58.6,19.5,58.6,19.4z M33,27.3c-1.5,1.4-2.9,2.7-4.3,2.2c1.2-2.2,3.5-3.9,5.5-7.4C34.8,23.6,32.8,24.9,33,27.3z
			 M36.5,25.8c0.6-1.2,1.6-2.1,2.3-3.2C40,23.8,37.8,25.6,36.5,25.8z M41.6,19.8c1.3-2.3,4.3-2.8,6-4.6
			C47.6,16.9,45.2,20.2,41.6,19.8z M54.9,21.7c-0.8,0.1-1-0.6-1.8-0.5c0.3-0.9,1.2-1.2,2.3-1.4C55.6,20.8,55.1,21,54.9,21.7z"/>
	</g>
	<path class="st4" d="M98.7,28.1c0-0.9,0.1-1.4-0.6-1.9c-2-0.5-1.4,0.7-2.2,1.5c-1.4,0.9-2.9,1.7-3.7,3.2c-0.9,0.5-1.6,1.2-2.3,1.8
		c-0.6,0.5-1.2,1.1-1.8,1.4c-0.8,0-1.5,0-2.3,0c-1.9-0.6-2.4-0.3-1.8-2.3c0.6-1.9,1.2-2.4,2.3-5.1c2.1-3,3.6-6.3,3.2-7.4
		c-0.2-4.2,2-6,3.2-8.8c1.2-0.1,1.6-0.8,2.3-1.4c1.9-0.2,3.2,0.2,3.2,1.8c-0.3,2-2.4,2.2-2.3,4.6c2.5-0.4,3.4-2.4,4.6-4.1
		c1.5-1.6,3-3.1,4.1-5.1c1.8-0.7,1.8-3.2,4.6-2.8c1.2,5.1,6.3,6.3,9.2,9.7c0.7,1.5,0.6,3.7,1.4,5.1c0,0.2,0,0.3,0,0.5
		c0,1.1,0,2.2,0,3.2c-0.4,0.8-1.3,1.2-0.9,2.8c1,0.3,3.6-0.8,3.2,0.9c-8,2.1-9.7,14-21.4,9.4c0,0.2-0.8,0-1.5-0.4
		c-0.5,0.1-0.5-0.4-0.6-0.7c0-0.3,0-0.6,0-0.9c0-0.5,0-0.9,0-1.4c0.2,0-0.1-1,0.1-1L98.7,28.1z M104.7,12.4c2.9,0.7,4.5-3.6,2.8-4.6
		C107.1,9.9,104.6,9.9,104.7,12.4z M112.1,17.1c1.1,0,2.2,0,3.2,0c0.4-1.5-0.7-1.4-0.9-2.3C113,14.8,112.2,15.6,112.1,17.1z
		 M93.2,26.3c1.1-0.7,2-1.6,2.8-2.8c1.3-0.9,2.3-2,3.2-3.2c1.1-0.7,2.1-1.6,2.3-3.2c-1.9,0.4-2.6,2-3.7,3.2
		c-1.1,0.3-1.6,1.2-2.3,1.8C94.3,22.6,93,23,92.3,24c-2.4,1.1-3.6,3.5-4.1,6.5c1.9-0.3,2.6-1.7,3.7-2.8L93.2,26.3z M102.4,23.1
		c1.1-1.4,4.2-3.1,2.8-5.5C104.2,19.3,102,19.9,102.4,23.1z M109.8,30.4c1.6-0.4,3.1-0.8,3.2-2.8c-2,0-3.4,0.6-4.6,1.4
		c-1.9,0.5-3.8,0.8-3.7,3.2C106.4,31.6,108,30.9,109.8,30.4z"/>
	<g>
		<path class="st0" d="M219.1,12.2v9.9c0,0.4,0.4,0.8,0.7,1.1c0.1,0.1,0.4,0.3,0.4,0.4v2.5l1-2.3c0.9-2.1-0.4-7.6-1.1-9.3
			L219.1,12.2z"/>
		<path class="st0" d="M258.4,26.4c-0.1-1.1-0.1-2.1-0.1-3.4l0-3.3c-0.6-4.7-0.9-12.2-0.5-15.1l0.1-0.7l-0.7,0.2c-0.1,0-0.1,0-0.2,0
			c0,0-0.1-0.2-0.1-0.5l0-0.2l-0.2-0.1c-0.6-0.4-1.3-0.5-2-0.6c-1.2-0.2-1.8-0.3-1.9-0.9l-0.1-0.7L252,1.4c-0.7,0.4-0.9,0.4-1.5,0
			c-0.3-0.2-0.7-0.4-1.4-0.5l-0.3-0.1l-0.2,0.3c-0.2,0.3-0.7,0.4-1.2,0.5c-0.3,0.1-0.5,0.1-0.8,0.2l-0.3,0.1l0,0.3
			c0,0-0.1,0.1-0.4,0.1c-0.1,0-0.2,0-0.4,0c-0.2,0-0.5,0-0.6,0h-2.2l-0.1,0.3c-0.1,0.2-0.4,0.2-0.9,0.2c-0.3,0-0.7,0-1-0.1
			c-0.7-0.1-1.4-0.1-1.9,0l-0.2,0l-0.1,0.1c-0.3,0.4-0.6,0.8-0.8,0.8c-0.1,0-0.4-0.1-0.7-0.2c-0.2-0.1-0.4-0.2-0.7-0.3L235.7,3
			l-0.1,0.6c0,0.3,0,0.5,0,0.8c0,0.2,0,0.6,0,0.7c0,0-0.1,0-0.3-0.1l-0.2,0l-0.1,0c-0.1,0-0.2,0-0.3-0.1c-0.1-0.1-0.1-0.3,0-0.7
			l0.1-0.6l-0.6,0c-0.9,0-1.7-0.1-2.5-0.3c-1.1-0.1-2.2-0.3-3.4-0.3c-0.5,0-1,0-1.5,0.1l-0.4,0c-0.8,0-1.3,0.3-1.7,0.6
			c-0.2,0.2-0.4,0.3-0.7,0.4l-0.3,0.1l0,0.3c0,0.1,0,0.3,0,0.5c0,0.2,0,0.4,0,0.5L223,5.6l0.2,0.6c0.1,0.4,0.3,0.7,0.5,1
			c0.2,0.3,0.3,0.5,0.4,0.8l0.1,0.2l0.2,0.1c0.2,0.1,0.4,0.2,0.7,0.3c0.7,0.3,1.1,0.5,1,1.3c-0.1,0.1-0.1,0.1-0.1,0.1
			c-0.1,0-0.2-0.2-0.3-0.3c-0.3-0.4-0.9-1.1-1.9-1l-0.3,0l-0.1,0.3c-0.1,0.3-0.3,0.6-0.4,0.8c-0.2,0.3-0.4,0.6-0.5,1l0,3.9l0,0.2
			c0.7,1.7,0.7,6.7,0,8.4c-0.3,0.9,0,1.4,0.3,1.7c0.2,0.2,0.2,0.3,0.2,0.7l0,0.1l0,0.1c0.4,1.8,0.3,3,0.1,4.6
			c-0.1,0.9-0.2,1.9-0.1,3.2l0,0.4l0.4,0.1c0.8,0.2,1.9,0.8,1.5,3.6c-0.2,1.4,0.1,2.4,0.3,3.4l0.2,0.9h1.9l0.1-0.1
			c0.3-0.2,0.6-0.5,0.9-0.7c1.3-0.9,2.4-1.8,4.4-2l0.3,0l0.1-0.3c0.2-0.3,1.5-0.8,3.4-0.8c1.7,0,2.9,0.4,3,0.8l0.1,0.3h2.4l0.1-0.2
			c0.6-0.6,1.8-0.9,3.6-0.9c0.9,0,1.9,0.1,2.8,0.1c1.7,0.1,3.7,0.2,4.8,0c1.1,0,1.6-0.6,2.1-1.1c0.1-0.1,0.3-0.3,0.5-0.4l0.1-0.1
			c0.2-0.3,0.5-0.7,0.4-1.1c0.1,0,0.2,0,0.2,0l0.4,0c0.2,0,0.3,0,0.5,0l0.4-0.1v-1.8C258.6,31.1,258.5,29.1,258.4,26.4z M225.6,8.3
			c-1.7,0.4-0.6-1.8-0.9-2.8C226.3,5.1,225.3,7.3,225.6,8.3z M225.6,18.9c0.2-2.1-0.5-5.1,0.5-6.5c1.1,1.9,0.2,5.7,0.5,8.3
			C225.1,21.2,225.7,19.7,225.6,18.9z M227.9,36c-0.4,0.3-1.3,0.7-1.4,0c0.3-1.5,1.7-0.7,2.8-0.5C229.2,36,228.4,35.9,227.9,36z
			 M229.4,21.5c-0.1,0.3-0.1,0.6-0.1,0.9c-0.1,0.8-0.1,1.9,0,2.9c0.1,1.5,0.1,3-0.3,3.8c0,0,0,0-0.1-0.1c-0.7-0.8-0.2-5.3,0.1-7.7
			c0.1-0.9,0.2-1.8,0.3-2.3c0.1-0.8,0-1.7,0-2.5c0-0.8-0.1-1.6,0-2.3c0.2,1.1,0.2,2.4,0.2,3.6c0,1.1,0,2.2,0.1,3
			C229.5,21,229.5,21.3,229.4,21.5z M230.1,36.3l0-0.2c0,0,0,0,0-0.1l0.6,0.4c0.1,0.1,0.2,0.1,0.3,0.2
			C230.8,36.5,230.4,36.4,230.1,36.3z M246.1,7.3c0.1-0.5,0.3-0.9,0.3-1.3c0.1,0.1,0.1,0.2,0.2,0.3l0,2.6c0.1,0.8-0.2,1.3-1,1.6
			C245.5,9.3,245.8,8.2,246.1,7.3z M236.2,9.7c-1.3-1,1.1-2.3,1.4-3.2c1.1-0.1,2.2-0.1,2.8,0.5c0,0.1,0,0.2,0,0.4
			c0.2-0.1,0.4-0.2,0.6-0.3c0.3,0,0.5,0,0.7,0c0.6,0,1.1,0.1,1.4,0.2c-0.1,0.6-0.3,0.9-0.7,1.3c-0.2,0.2-0.4,0.5-0.6,0.8
			c-0.1,0-0.1,0-0.2,0h0c-0.3,0-0.6-0.1-0.9-0.3c-0.3-0.1-0.6-0.3-0.9-0.3c-0.1,0-0.2,0-0.2,0c-0.2,0.3-0.5,0.6-0.6,0.9
			c-0.1,0-0.2,0.1-0.3,0.1c-0.1,0.1-0.1,0.3-0.1,0.4c0,0,0,0.1,0,0.1c0-0.2,0-0.3,0.1-0.5C237.4,10,236.6,8.5,236.2,9.7z
			 M238.5,18.9c0.5,2.4,1,6.5,0.2,7.9c-0.2,0.3-0.4,0.4-0.6,0.4v0.5c0,0,0,0,0,0l-0.1-0.5c-0.2,0-0.3-0.1-0.4-0.2
			C236.7,25.8,237.9,21.2,238.5,18.9z M238.2,32.5c-0.2-0.1-0.5-0.1-0.7-0.2c-0.2-1.2,0.3-1.7,0.9-2.3c0.2-0.2,0.4-0.4,0.6-0.7
			c0.1,0.2,0.2,0.6,0.3,1.1c0.1,0.6,0.2,1.3,0.6,1.8l0.1,0.1c0.8,0.4,1.7,0.6,2.8,0.6C241.3,33.3,240.2,33,238.2,32.5z M242.6,10.1
			c0-1.8,0.4-3.2,1.4-4.1c0,0.9,0,1.8,0,2.8C243.2,8.8,243.7,10.3,242.6,10.1z M247.3,33.2c-0.3,0-0.6,0-0.9,0c0-0.2,0-0.4,0-0.7
			c-1,0-1.3,0.9-1.4,1.4c-0.1,0.6-0.2,0.6-0.5,0.6l-0.1,0l-0.1,0c-0.2,0.1-0.2,0.1-0.3,0.1c-0.1-0.1,0-0.5,0-0.7c0-0.3,0-0.6,0-0.8
			l0-0.4c0.9-0.1,1.7-0.4,2.4-0.9c0-0.7,0-1.2,1-1C247.3,31.7,247.3,32.4,247.3,33.2z M247.7,9.7c0.2-0.7,0.7-1.2,0.9-1.8
			c0.6,0.2,0.9,0.6,0.9,1.4C249.1,9.6,248.5,9.7,247.7,9.7z M251,32c-0.3,0.2-0.6,0.3-0.7,0.7l-0.8,0c-0.1-0.1,0-0.7,0-1
			c0-0.3,0.1-0.6,0.1-0.9c0.4-0.1,0.5,0,0.8,0.3c0.2,0.2,0.5,0.5,0.9,0.6C251.2,31.9,251,31.9,251,32z M251.4,16.6
			c-1.7,0.4-0.6-1.8-0.9-2.8C252.1,13.4,251.1,15.6,251.4,16.6z M251.9,10.6c-0.5,0-0.6-0.1-0.6-0.1c0,0-0.1-0.2,0-0.6
			c0.1-0.3,0.3-0.6,0.4-0.8c0.1-0.1,0.2-0.3,0.3-0.5c0.1,0.1,0.2,0.3,0.2,0.7v1.4C252.1,10.6,252,10.6,251.9,10.6L251.9,10.6z
			 M253.5,26.7c-0.1,0.3-0.3,0.7-0.4,1.4v3.1c-0.2-0.3-0.3-0.6-0.3-1.1l0-0.2l-0.1-0.2c-0.4-0.4-0.4-1.4-0.4-2.2
			c0-0.8,0-1.6-0.3-2.2c-0.2-1.4,0.1-2.4,0.3-3.6c0.1-0.4,0.2-0.9,0.3-1.3c0.5,1.2,0.6,2.6,0.7,3.8l0,0.1
			C253.8,25.9,253.7,26.2,253.5,26.7z"/>
	</g>
	<path class="st5" d="M191,30.3l0-0.2l-0.2-0.1c-0.7-0.5-1.4-0.7-2.5-0.6c-0.6-0.3-1.4-0.4-2.1-0.4c-0.2,0-0.4,0-0.7,0
		c0.5-0.6,0.4-1.5,0.4-2.3c0-0.3,0-0.6,0-0.9l0-0.1l0-0.1c-0.1-0.2-0.1-0.2-0.1-0.3c0.1,0,0.4,0,0.7,0c0.3,0,0.6,0,0.8,0l0.4-0.1
		v-6.7c0.1-0.2,0-0.5-0.1-0.7c0,0,0,0,0,0l0-0.4c0.1-1.1,0.2-1.9,0.1-3.3c-0.4-3.4,0.4-5.5,1.3-7.6l0-0.1c0.1-0.6-0.1-1-0.3-1.3
		c-0.1-0.2-0.2-0.4-0.2-0.6l0-0.4l-0.4-0.1c-0.2,0-0.3-0.2-0.5-0.3c-0.4-0.4-1-0.9-2.1-0.6l-0.2,0.1c-0.5,0.4-0.8,0.9-1.1,1.3
		c-0.1,0.2-0.3,0.4-0.4,0.6L184,5.3l0,0.1c-0.3,2.7-0.9,5.1-1.9,7c-0.4-0.4-0.8-0.8-0.8-1.5l0-0.3l-0.3-0.1
		c-0.7-0.3-0.7-1.6-0.6-2.9l0-1.4L179.6,7c-0.5,0.4-0.9,0.6-1.3,0.6c-0.6,0-1.2-0.5-1.9-1c-0.9-0.7-2.1-1.7-3.8-1.7
		c-0.3,0-0.7,0-1,0.1h-1.3l-0.5,0.2c-0.7,0.3-1.4,0.6-2.3,0.8L167.2,6c-1.9,1.2-3.9,2.5-6,3.7c-0.5,0.3-0.7,0.5-0.9,0.7
		c-0.2,0.2-0.4,0.5-1.3,1.1l-0.2,0.1l0,0.2c0,0-0.1,0.2-1.1,0.8l-0.1,0.1l-0.1,0.2c-0.3,0.6-0.8,0.9-1.5,1.2c-0.9,0.5-2.1,1.1-2,3
		l0,1h0.5c0.1,0,0.3,0.2,0.4,0.3c0.3,0.3,0.7,0.6,1.1,0.6h0.4l0.1-0.4c0.1-0.7,0.4-1.5,0.8-2c0.2,0.4,0.6,0.4,0.8,0.5
		c0.1,0,0.2,0,0.2,0c0,0,0,0.1-0.1,0.2l0,0.1l0,0.1c0.1,2.3-0.2,3.3-1.1,3.7l-0.2,0.1l-0.1,0.2c-0.2,0.6-0.5,1-0.8,1.5
		c-0.6,0.9-1.2,2-1.1,3.7l0.1,0.4l0.4,0c0,0,0.1,0.2,0.1,0.3c0.1,0.4,0.3,1.1,1.2,1.1c0.1,0,0.2,0,0.3,0c0,0,0,0,0.1,0
		c-0.2,0.4-0.5,0.7-0.8,1.1c-0.7,0.9-1.6,2-1.4,3.9l0.1,0.2c0.4,0.7,1.3,0.7,1.7,0.7h0c0.3,0,0.5,0,0.8,0c0.3,0,0.5,0,0.8,0
		c0.5,0,0.8,0.1,0.8,0.2l0.1,0.2c0.6,0.6,1.5,0.6,2.3,0.6c0.3,0,0.6,0,0.9,0c0.5,0,0.9,0,1.3,0l0.3,0l0.1-0.3
		c0.2-0.5,0.8-0.7,2.1-0.7c0.3,0,0.6,0,0.9,0c0.5,0,1.1,0,1.6,0h4.8l0.1-0.1c0.3-0.2,1.3-0.5,2.6-0.5c1.3,0,2.1,0.3,2.2,0.6l0,0.3
		l0.3,0.1c0.3,0.1,0.5,0.2,0.7,0.4c0.5,0.3,1.1,0.7,2.1,0.7c0.2,0,0.5,0,0.7-0.1c1-0.1,1.2-1.2,1.2-1.9c0-0.3,0.1-0.6,0.1-0.8
		c0.5,0.3,1,0.4,1.6,0.4c0.2,0,0.5,0,0.6,0c0.5,0,1.1,0.1,1.6,0.1c1.1,0,2.4-0.1,3.1-1C191,32.2,191.2,31.4,191,30.3z M159.7,23.3
		c0.1-0.2,0.5-0.2,0.7-0.2c0,0.1,0,0.2-0.1,0.2c-0.1,0.2-0.5,0.2-0.7,0.2C159.7,23.4,159.7,23.3,159.7,23.3z M161.1,29.4
		c0,0.4-0.1,0.9-0.1,1.3c-0.6-0.3-1-0.8-0.9-1.9c0.4-0.8,0.9-1.1,1-1.1c0,0,0.1,0,0.1,0.1C161.2,28.2,161.2,28.8,161.1,29.4z
		 M162.4,20.3c-1.3-0.1-0.8-1.9-0.9-3.2C163.3,16.7,162.1,19.2,162.4,20.3z M171,17.9L171,17.9l0.1-0.2c0.1-0.4,0.3-0.7,0.4-1.1
		c0.4-1.3,0.7-2,1.5-2.3h0.5c0,0,0,0.1,0,0.1c0.2-0.3,0.5-0.5,0.9-0.6c-1,1.8,0.6,6.1-1.8,6.5c0-0.6,0-1.3,0-2c0,0-0.1,0.1-0.1,0.1
		l-0.1,0.1v0.2c0,0.3,0,0.4-0.1,0.5c-0.1,0.1-0.2,0.3-0.2,0.5c-0.6,0.1-0.9,0.3-1.3,0.5c-0.3,0.2-0.6,0.4-1,0.4
		C170,19.3,170.4,18.4,171,17.9z M166.6,10.6c-0.2,1.6,0.8,4.4-1.4,4.1C166.4,13.1,164.8,11.2,166.6,10.6z M170.5,28.8L170.5,28.8
		l-1.2,0c-1.4,0-2.9,0-4.2,0.4V28c0.5,0.2,1,0.3,1.4,0.3c1.3,0,2.1-0.9,2.2-2.3c0.1-0.1,0.1-0.2,0.2-0.3c0,0,0,0,0-0.1l0.1-0.1
		c0.4-0.4,1.3-0.6,2.2-0.6c0.9,0,1.6,0.2,2,0.5c0.1,0.1,0.1,0.2,0.1,0.3l0,0.3l0.2,0.2c0.7,0.6,0.7,0.7,0.7,0.8
		c-0.1,0.4,0,0.7,0.4,1.1C173.6,28.7,172.1,28.8,170.5,28.8z M176.3,19.5c0-0.2,0-0.3,0-0.5c0-1.4,0-2.8,0.5-3.8c0,0.5,0,1,0,1.4
		C176.7,18,176.7,19,176.3,19.5z M176.7,23.1c0.1-2.2-0.4-5,1.4-5.5C177.7,19.3,179.1,24.8,176.7,23.1z M181.2,21.3
		c0,0.7-0.1,1.5-0.1,2.2c-0.1,0-0.1,0-0.2,0c-0.3,0-0.6,0-0.7,0c0,0,0,0,0,0c0,0,0-0.1,0.1-0.3l0-0.1c0-0.5,0-1,0-1.6
		c0-1.7,0-2.9,0.7-3.4C181.4,18.9,181.3,20.1,181.2,21.3z"/>
</g>
<g>
</g>
<g>
</g>
<g>
</g>
<g>
</g>
<g>
</g>
<g>
</g>
</svg>
